Griffith_Gothic-Light.ufo
<glyph name="exclam" format="1">
  <advance width="242"/>
  <unicode hex="0021"/>
  <outline>
    <contour>
      <point x="163" y="720" type="line"/>
      <point x="138" y="207" type="line"/>
      <point x="104" y="207" type="line"/>
      <point x="79" y="720" type="line"/>
    </contour>
    <contour>
      <point x="170" y="42" type="curve" smooth="yes"/>
      <point x="170" y="14"/>
      <point x="149" y="-7"/>
      <point x="121" y="-7" type="curve" smooth="yes"/>
      <point x="93" y="-7"/>
      <point x="72" y="14"/>
      <point x="72" y="42" type="curve" smooth="yes"/>
      <point x="72" y="70"/>
      <point x="93" y="90"/>
      <point x="121" y="90" type="curve" smooth="yes"/>
      <point x="149" y="90"/>
      <point x="170" y="70"/>
    </contour>
  </outline>
</glyph>
<glyph name="quotedbl" format="1">
  <advance width="334"/>
  <unicode hex="0022"/>
  <outline>
    <contour>
      <point x="278" y="720" type="line"/>
      <point x="260" y="505" type="line"/>
      <point x="222" y="505" type="line"/>
      <point x="204" y="720" type="line"/>
    </contour>
    <contour>
      <point x="129" y="720" type="line"/>
      <point x="112" y="505" type="line"/>
      <point x="73" y="505" type="line"/>
      <point x="56" y="720" type="line"/>
    </contour>
  </outline>
</glyph>
<glyph name="numbersign" format="1">
  <advance width="611"/>
  <unicode hex="0023"/>
  <outline>
    <contour>
      <point x="583" y="463" type="line"/>
      <point x="462" y="463" type="line"/>
      <point x="427" y="257" type="line"/>
      <point x="549" y="257" type="line"/>
      <point x="549" y="203" type="line"/>
      <point x="418" y="203" type="line"/>
      <point x="384" y="0" type="line"/>
      <point x="336" y="0" type="line"/>
      <point x="370" y="203" type="line"/>
      <point x="188" y="203" type="line"/>
      <point x="154" y="0" type="line"/>
      <point x="106" y="0" type="line"/>
      <point x="140" y="203" type="line"/>
      <point x="28" y="203" type="line"/>
      <point x="28" y="257" type="line"/>
      <point x="149" y="257" type="line"/>
      <point x="184" y="463" type="line"/>
      <point x="62" y="463" type="line"/>
      <point x="62" y="517" type="line"/>
      <point x="193" y="517" type="line"/>
      <point x="227" y="720" type="line"/>
      <point x="275" y="720" type="line"/>
      <point x="241" y="517" type="line"/>
      <point x="423" y="517" type="line"/>
      <point x="457" y="720" type="line"/>
      <point x="505" y="720" type="line"/>
      <point x="471" y="517" type="line"/>
      <point x="583" y="517" type="line"/>
    </contour>
    <contour>
      <point x="414" y="463" type="line"/>
      <point x="232" y="463" type="line"/>
      <point x="197" y="257" type="line"/>
      <point x="379" y="257" type="line"/>
    </contour>
  </outline>
</glyph>
<glyph name="dollar" format="1">
  <advance width="547"/>
  <unicode hex="0024"/>
  <outline>
    <contour>
      <point x="509" y="188" type="curve" smooth="yes"/>
      <point x="509" y="72"/>
      <point x="415" y="6"/>
      <point x="299" y="-1" type="curve"/>
      <point x="299" y="-95" type="line"/>
      <point x="252" y="-95" type="line"/>
      <point x="252" y="0" type="line"/>
      <point x="165" y="5"/>
      <point x="91" y="38"/>
      <point x="34" y="98" type="curve"/>
      <point x="74" y="143" type="line"/>
      <point x="128" y="86"/>
      <point x="182" y="57"/>
      <point x="254" y="51" type="curve"/>
      <point x="254" y="351" type="line"/>
      <point x="120" y="395"/>
      <point x="57" y="448"/>
      <point x="57" y="548" type="curve" smooth="yes"/>
      <point x="57" y="647"/>
      <point x="136" y="717"/>
      <point x="252" y="721" type="curve"/>
      <point x="252" y="762" type="line"/>
      <point x="299" y="762" type="line"/>
      <point x="299" y="720" type="line"/>
      <point x="374" y="714"/>
      <point x="431" y="687"/>
      <point x="486" y="633" type="curve"/>
      <point x="446" y="588" type="line"/>
      <point x="401" y="634"/>
      <point x="357" y="661"/>
      <point x="297" y="669" type="curve"/>
      <point x="297" y="398" type="line"/>
      <point x="454" y="344"/>
      <point x="509" y="290"/>
    </contour>
    <contour>
      <point x="254" y="412" type="curve"/>
      <point x="254" y="670" type="line"/>
      <point x="167" y="667"/>
      <point x="120" y="621"/>
      <point x="120" y="552" type="curve" smooth="yes"/>
      <point x="120" y="485"/>
      <point x="161" y="446"/>
    </contour>
    <contour>
      <point x="446" y="184" type="curve" smooth="yes"/>
      <point x="446" y="254"/>
      <point x="413" y="294"/>
      <point x="297" y="337" type="curve"/>
      <point x="297" y="50" type="line"/>
      <point x="388" y="56"/>
      <point x="446" y="102"/>
    </contour>
  </outline>
</glyph>
<glyph name="percent" format="1">
  <advance width="830"/>
  <unicode hex="0025"/>
  <outline>
    <contour>
      <point x="797" y="186" type="curve" smooth="yes"/>
      <point x="797" y="69"/>
      <point x="726" y="-7"/>
      <point x="634" y="-7" type="curve" smooth="yes"/>
      <point x="542" y="-7"/>
      <point x="473" y="68"/>
      <point x="473" y="186" type="curve" smooth="yes"/>
      <point x="473" y="303"/>
      <point x="544" y="378"/>
      <point x="636" y="378" type="curve" smooth="yes"/>
      <point x="728" y="378"/>
      <point x="797" y="303"/>
    </contour>
    <contour>
      <point x="666" y="720" type="line"/>
      <point x="435" y="351" type="line"/>
      <point x="227" y="0" type="line"/>
      <point x="164" y="0" type="line"/>
      <point x="396" y="369" type="line"/>
      <point x="604" y="720" type="line"/>
    </contour>
    <contour>
      <point x="358" y="534" type="curve" smooth="yes"/>
      <point x="358" y="417"/>
      <point x="286" y="342"/>
      <point x="195" y="342" type="curve" smooth="yes"/>
      <point x="103" y="342"/>
      <point x="34" y="417"/>
      <point x="34" y="534" type="curve" smooth="yes"/>
      <point x="34" y="651"/>
      <point x="105" y="727"/>
      <point x="197" y="727" type="curve" smooth="yes"/>
      <point x="288" y="727"/>
      <point x="358" y="652"/>
    </contour>
    <contour>
      <point x="739" y="185" type="curve" smooth="yes"/>
      <point x="739" y="273"/>
      <point x="700" y="331"/>
      <point x="635" y="331" type="curve" smooth="yes"/>
      <point x="570" y="331"/>
      <point x="531" y="275"/>
      <point x="531" y="187" type="curve" smooth="yes"/>
      <point x="531" y="99"/>
      <point x="570" y="40"/>
      <point x="635" y="40" type="curve" smooth="yes"/>
      <point x="699" y="40"/>
      <point x="739" y="97"/>
    </contour>
    <contour>
      <point x="300" y="533" type="curve" smooth="yes"/>
      <point x="300" y="621"/>
      <point x="261" y="680"/>
      <point x="196" y="680" type="curve" smooth="yes"/>
      <point x="131" y="680"/>
      <point x="91" y="623"/>
      <point x="91" y="535" type="curve" smooth="yes"/>
      <point x="91" y="447"/>
      <point x="130" y="389"/>
      <point x="196" y="389" type="curve" smooth="yes"/>
      <point x="260" y="389"/>
      <point x="300" y="445"/>
    </contour>
  </outline>
</glyph>
<glyph name="ampersand" format="1">
  <advance width="673"/>
  <unicode hex="0026"/>
  <outline>
    <contour>
      <point x="676" y="3" type="line"/>
      <point x="656" y="-3"/>
      <point x="641" y="-6"/>
      <point x="617" y="-6" type="curve" smooth="yes"/>
      <point x="555" y="-6"/>
      <point x="514" y="13"/>
      <point x="453" y="79" type="curve"/>
      <point x="395" y="22"/>
      <point x="326" y="-10"/>
      <point x="252" y="-10" type="curve" smooth="yes"/>
      <point x="123" y="-10"/>
      <point x="33" y="73"/>
      <point x="33" y="192" type="curve" smooth="yes"/>
      <point x="33" y="282"/>
      <point x="75" y="351"/>
      <point x="204" y="417" type="curve"/>
      <point x="166" y="476"/>
      <point x="142" y="531"/>
      <point x="142" y="584" type="curve" smooth="yes"/>
      <point x="142" y="669"/>
      <point x="206" y="732"/>
      <point x="297" y="732" type="curve" smooth="yes"/>
      <point x="386" y="732"/>
      <point x="434" y="665"/>
      <point x="434" y="593" type="curve" smooth="yes"/>
      <point x="434" y="514"/>
      <point x="380" y="457"/>
      <point x="285" y="406" type="curve"/>
      <point x="354" y="300"/>
      <point x="403" y="234"/>
      <point x="460" y="165" type="curve"/>
      <point x="505" y="224"/>
      <point x="542" y="301"/>
      <point x="569" y="388" type="curve"/>
      <point x="623" y="363" type="line"/>
      <point x="591" y="269"/>
      <point x="547" y="187"/>
      <point x="495" y="123" type="curve"/>
      <point x="551" y="61"/>
      <point x="584" y="47"/>
      <point x="619" y="47" type="curve" smooth="yes"/>
      <point x="645" y="47"/>
      <point x="658" y="50"/>
      <point x="676" y="56" type="curve"/>
    </contour>
    <contour>
      <point x="373" y="591" type="curve" smooth="yes"/>
      <point x="373" y="644"/>
      <point x="345" y="686"/>
      <point x="295" y="686" type="curve" smooth="yes"/>
      <point x="234" y="686"/>
      <point x="205" y="641"/>
      <point x="205" y="587" type="curve" smooth="yes"/>
      <point x="205" y="543"/>
      <point x="224" y="495"/>
      <point x="257" y="444" type="curve"/>
      <point x="342" y="488"/>
      <point x="373" y="533"/>
    </contour>
    <contour>
      <point x="419" y="119" type="curve"/>
      <point x="369" y="180"/>
      <point x="307" y="262"/>
      <point x="231" y="376" type="curve"/>
      <point x="136" y="325"/>
      <point x="101" y="269"/>
      <point x="101" y="199" type="curve" smooth="yes"/>
      <point x="101" y="111"/>
      <point x="165" y="42"/>
      <point x="257" y="42" type="curve" smooth="yes"/>
      <point x="317" y="42"/>
      <point x="371" y="70"/>
    </contour>
  </outline>
</glyph>
<glyph name="parenleft" format="1">
  <advance width="314"/>
  <unicode hex="0028"/>
  <outline>
    <contour>
      <point x="282" y="-95" type="curve"/>
      <point x="223" y="-95" type="line"/>
      <point x="137" y="1"/>
      <point x="57" y="135"/>
      <point x="57" y="320" type="curve" smooth="yes"/>
      <point x="57" y="505"/>
      <point x="137" y="639"/>
      <point x="223" y="735" type="curve"/>
      <point x="282" y="735" type="line"/>
      <point x="187" y="620"/>
      <point x="128" y="488"/>
      <point x="128" y="320" type="curve" smooth="yes"/>
      <point x="128" y="152"/>
      <point x="187" y="20"/>
    </contour>
  </outline>
</glyph>
<glyph name="parenright" format="1">
  <advance width="314"/>
  <unicode hex="0029"/>
  <outline>
    <contour>
      <point x="257" y="320" type="curve" smooth="yes"/>
      <point x="257" y="135"/>
      <point x="177" y="1"/>
      <point x="90" y="-95" type="curve"/>
      <point x="32" y="-95" type="line"/>
      <point x="127" y="20"/>
      <point x="185" y="152"/>
      <point x="185" y="320" type="curve" smooth="yes"/>
      <point x="185" y="488"/>
      <point x="127" y="620"/>
      <point x="32" y="735" type="curve"/>
      <point x="90" y="735" type="line"/>
      <point x="177" y="639"/>
      <point x="257" y="505"/>
    </contour>
  </outline>
</glyph>
<glyph name="plus" format="1">
  <advance width="600"/>
  <unicode hex="002B"/>
  <outline>
    <contour>
      <point x="554" y="326" type="line"/>
      <point x="330" y="326" type="line"/>
      <point x="330" y="101" type="line"/>
      <point x="270" y="101" type="line"/>
      <point x="270" y="326" type="line"/>
      <point x="46" y="326" type="line"/>
      <point x="46" y="384" type="line"/>
      <point x="270" y="384" type="line"/>
      <point x="270" y="609" type="line"/>
      <point x="330" y="609" type="line"/>
      <point x="330" y="384" type="line"/>
      <point x="554" y="384" type="line"/>
    </contour>
  </outline>
</glyph>
<glyph name="hyphen" format="1">
  <advance width="309"/>
  <unicode hex="002D"/>
  <unicode hex="2010"/>
  <unicode hex="2011"/>
  <outline>
    <contour>
      <point x="271" y="250" type="line"/>
      <point x="38" y="250" type="line"/>
      <point x="38" y="311" type="line"/>
      <point x="271" y="311" type="line"/>
    </contour>
  </outline>
</glyph>
<glyph name="period" format="1">
  <advance width="186"/>
  <unicode hex="002E"/>
  <outline>
    <contour>
      <point x="142" y="43" type="curve" smooth="yes"/>
      <point x="142" y="14"/>
      <point x="121" y="-7"/>
      <point x="93" y="-7" type="curve" smooth="yes"/>
      <point x="64" y="-7"/>
      <point x="43" y="14"/>
      <point x="43" y="43" type="curve" smooth="yes"/>
      <point x="43" y="71"/>
      <point x="64" y="92"/>
      <point x="93" y="92" type="curve" smooth="yes"/>
      <point x="121" y="92"/>
      <point x="142" y="71"/>
    </contour>
  </outline>
</glyph>
<glyph name="slash" format="1">
  <advance width="379"/>
  <unicode hex="002F"/>
  <outline>
    <contour>
      <point x="362" y="735" type="line"/>
      <point x="53" y="-95" type="line"/>
      <point x="-13" y="-95" type="line"/>
      <point x="296" y="735" type="line"/>
    </contour>
  </outline>
</glyph>
<glyph name="two" format="1">
  <advance width="554"/>
  <unicode hex="0032"/>
  <outline>
    <contour>
      <point x="496" y="0" type="line"/>
      <point x="59" y="0" type="line"/>
      <point x="59" y="46" type="line"/>
      <point x="96" y="161"/>
      <point x="159" y="235"/>
      <point x="286" y="331" type="curve" smooth="yes"/>
      <point x="373" y="397"/>
      <point x="418" y="447"/>
      <point x="418" y="532" type="curve" smooth="yes"/>
      <point x="418" y="615"/>
      <point x="371" y="677"/>
      <point x="280" y="677" type="curve" smooth="yes"/>
      <point x="200" y="677"/>
      <point x="153" y="634"/>
      <point x="107" y="540" type="curve"/>
      <point x="54" y="566" type="line"/>
      <point x="103" y="670"/>
      <point x="174" y="732"/>
      <point x="283" y="732" type="curve" smooth="yes"/>
      <point x="421" y="732"/>
      <point x="487" y="643"/>
      <point x="487" y="534" type="curve" smooth="yes"/>
      <point x="487" y="424"/>
      <point x="430" y="366"/>
      <point x="323" y="287" type="curve" smooth="yes"/>
      <point x="215" y="208"/>
      <point x="156" y="142"/>
      <point x="131" y="54" type="curve"/>
      <point x="496" y="54" type="line"/>
    </contour>
  </outline>
</glyph>
<glyph name="five" format="1">
  <advance width="540"/>
  <unicode hex="0035"/>
  <outline>
    <contour>
      <point x="495" y="243" type="line" smooth="yes"/>
      <point x="495" y="76"/>
      <point x="370" y="-10"/>
      <point x="226" y="-10" type="curve" smooth="yes"/>
      <point x="149" y="-10"/>
      <point x="101" y="1"/>
      <point x="38" y="29" type="curve"/>
      <point x="57" y="84" type="line"/>
      <point x="119" y="55"/>
      <point x="163" y="46"/>
      <point x="226" y="46" type="curve" smooth="yes"/>
      <point x="347" y="46"/>
      <point x="424" y="120"/>
      <point x="424" y="241" type="curve" smooth="yes"/>
      <point x="424" y="244" type="line" smooth="yes"/>
      <point x="424" y="348"/>
      <point x="372" y="404"/>
      <point x="280" y="404" type="curve" smooth="yes"/>
      <point x="223" y="404"/>
      <point x="184" y="380"/>
      <point x="145" y="344" type="curve"/>
      <point x="73" y="344" type="line"/>
      <point x="112" y="720" type="line"/>
      <point x="456" y="720" type="line"/>
      <point x="456" y="663" type="line"/>
      <point x="163" y="663" type="line"/>
      <point x="134" y="393" type="line"/>
      <point x="143" y="393" type="line"/>
      <point x="185" y="433"/>
      <point x="226" y="458"/>
      <point x="298" y="458" type="curve" smooth="yes"/>
      <point x="416" y="458"/>
      <point x="495" y="383"/>
      <point x="495" y="248" type="curve" smooth="yes"/>
    </contour>
  </outline>
</glyph>
<glyph name="seven" format="1">
  <advance width="495"/>
  <unicode hex="0037"/>
  <outline>
    <contour>
      <point x="478" y="675" type="line"/>
      <point x="350" y="498"/>
      <point x="225" y="222"/>
      <point x="180" y="0" type="curve"/>
      <point x="108" y="0" type="line"/>
      <point x="149" y="196"/>
      <point x="272" y="478"/>
      <point x="404" y="663" type="curve"/>
      <point x="21" y="663" type="line"/>
      <point x="21" y="720" type="line"/>
      <point x="478" y="720" type="line"/>
    </contour>
  </outline>
</glyph>
<glyph name="eight" format="1">
  <advance width="586"/>
  <unicode hex="0038"/>
  <outline>
    <contour>
      <point x="537" y="195" type="curve" smooth="yes"/>
      <point x="537" y="63"/>
      <point x="421" y="-12"/>
      <point x="293" y="-12" type="curve" smooth="yes"/>
      <point x="164" y="-12"/>
      <point x="48" y="61"/>
      <point x="48" y="193" type="curve" smooth="yes"/>
      <point x="48" y="296"/>
      <point x="117" y="360"/>
      <point x="198" y="382" type="curve"/>
      <point x="198" y="389" type="line"/>
      <point x="128" y="411"/>
      <point x="68" y="465"/>
      <point x="68" y="549" type="curve" smooth="yes"/>
      <point x="68" y="658"/>
      <point x="167" y="732"/>
      <point x="293" y="732" type="curve" smooth="yes"/>
      <point x="419" y="732"/>
      <point x="517" y="660"/>
      <point x="517" y="551" type="curve" smooth="yes"/>
      <point x="517" y="467"/>
      <point x="457" y="412"/>
      <point x="388" y="389" type="curve"/>
      <point x="388" y="382" type="line"/>
      <point x="468" y="360"/>
      <point x="537" y="298"/>
    </contour>
    <contour>
      <point x="448" y="542" type="curve" smooth="yes"/>
      <point x="448" y="625"/>
      <point x="387" y="680"/>
      <point x="293" y="680" type="curve" smooth="yes"/>
      <point x="199" y="680"/>
      <point x="137" y="626"/>
      <point x="137" y="544" type="curve" smooth="yes"/>
      <point x="137" y="458"/>
      <point x="207" y="405"/>
      <point x="293" y="405" type="curve" smooth="yes"/>
      <point x="378" y="405"/>
      <point x="448" y="455"/>
    </contour>
    <contour>
      <point x="468" y="198" type="curve" smooth="yes"/>
      <point x="468" y="301"/>
      <point x="389" y="361"/>
      <point x="293" y="361" type="curve" smooth="yes"/>
      <point x="197" y="361"/>
      <point x="118" y="303"/>
      <point x="118" y="200" type="curve" smooth="yes"/>
      <point x="118" y="98"/>
      <point x="194" y="40"/>
      <point x="293" y="40" type="curve" smooth="yes"/>
      <point x="391" y="40"/>
      <point x="468" y="97"/>
    </contour>
  </outline>
</glyph>
<glyph name="nine" format="1">
  <advance width="558"/>
  <unicode hex="0039"/>
  <outline>
    <contour>
      <point x="510" y="473" type="curve" smooth="yes"/>
      <point x="510" y="308"/>
      <point x="426" y="134"/>
      <point x="280" y="0" type="curve"/>
      <point x="192" y="0" type="line"/>
      <point x="327" y="112"/>
      <point x="414" y="251"/>
      <point x="435" y="364" type="curve"/>
      <point x="429" y="364" type="line"/>
      <point x="383" y="307"/>
      <point x="329" y="272"/>
      <point x="246" y="272" type="curve" smooth="yes"/>
      <point x="126" y="272"/>
      <point x="31" y="355"/>
      <point x="31" y="496" type="curve" smooth="yes"/>
      <point x="31" y="638"/>
      <point x="139" y="732"/>
      <point x="274" y="732" type="curve" smooth="yes"/>
      <point x="410" y="732"/>
      <point x="510" y="644"/>
    </contour>
    <contour>
      <point x="440" y="500" type="curve" smooth="yes"/>
      <point x="440" y="607"/>
      <point x="368" y="680"/>
      <point x="272" y="680" type="curve" smooth="yes"/>
      <point x="175" y="680"/>
      <point x="101" y="609"/>
      <point x="101" y="499" type="curve" smooth="yes"/>
      <point x="101" y="392"/>
      <point x="164" y="324"/>
      <point x="264" y="324" type="curve" smooth="yes"/>
      <point x="367" y="324"/>
      <point x="440" y="402"/>
    </contour>
  </outline>
</glyph>
<glyph name="semicolon" format="1">
  <advance width="204"/>
  <unicode hex="003B"/>
  <outline>
    <contour>
      <point x="152" y="472" type="curve" smooth="yes"/>
      <point x="152" y="443"/>
      <point x="131" y="422"/>
      <point x="103" y="422" type="curve" smooth="yes"/>
      <point x="74" y="422"/>
      <point x="53" y="443"/>
      <point x="53" y="472" type="curve" smooth="yes"/>
      <point x="53" y="500"/>
      <point x="74" y="521"/>
      <point x="103" y="521" type="curve" smooth="yes"/>
      <point x="131" y="521"/>
      <point x="152" y="500"/>
    </contour>
    <contour>
      <point x="142" y="96" type="line"/>
      <point x="73" y="-119" type="line"/>
      <point x="31" y="-119" type="line"/>
      <point x="65" y="96" type="line"/>
    </contour>
  </outline>
</glyph>
<glyph name="equal" format="1">
  <advance width="600"/>
  <unicode hex="003D"/>
  <outline>
    <contour>
      <point x="541" y="443" type="line"/>
      <point x="59" y="443" type="line"/>
      <point x="59" y="505" type="line"/>
      <point x="541" y="505" type="line"/>
    </contour>
    <contour>
      <point x="541" y="205" type="line"/>
      <point x="59" y="205" type="line"/>
      <point x="59" y="267" type="line"/>
      <point x="541" y="267" type="line"/>
    </contour>
  </outline>
</glyph>
<glyph name="greater" format="1">
  <advance width="600"/>
  <unicode hex="003E"/>
  <outline>
    <contour>
      <point x="551" y="325" type="line"/>
      <point x="57" y="101" type="line"/>
      <point x="57" y="165" type="line"/>
      <point x="484" y="355" type="line"/>
      <point x="57" y="545" type="line"/>
      <point x="57" y="609" type="line"/>
      <point x="551" y="385" type="line"/>
    </contour>
  </outline>
</glyph>
<glyph name="at" format="1">
  <advance width="1005"/>
  <unicode hex="0040"/>
  <outline>
    <contour>
      <point x="947" y="333" type="curve" smooth="yes"/>
      <point x="947" y="155"/>
      <point x="834" y="31"/>
      <point x="717" y="31" type="curve" smooth="yes"/>
      <point x="639" y="31"/>
      <point x="600" y="79"/>
      <point x="596" y="153" type="curve"/>
      <point x="591" y="153" type="line"/>
      <point x="544" y="76"/>
      <point x="487" y="31"/>
      <point x="426" y="31" type="curve" smooth="yes"/>
      <point x="347" y="31"/>
      <point x="295" y="95"/>
      <point x="295" y="201" type="curve" smooth="yes"/>
      <point x="295" y="363"/>
      <point x="377" y="514"/>
      <point x="492" y="514" type="curve" smooth="yes"/>
      <point x="563" y="514"/>
      <point x="600" y="462"/>
      <point x="622" y="394" type="curve"/>
      <point x="627" y="393" type="line"/>
      <point x="647" y="512" type="line"/>
      <point x="706" y="493" type="line"/>
      <point x="653" y="193" type="line" smooth="yes"/>
      <point x="641" y="123"/>
      <point x="662" y="64"/>
      <point x="731" y="64" type="curve" smooth="yes"/>
      <point x="820" y="64"/>
      <point x="909" y="177"/>
      <point x="909" y="331" type="curve" smooth="yes"/>
      <point x="909" y="558"/>
      <point x="748" y="700"/>
      <point x="520" y="700" type="curve" smooth="yes"/>
      <point x="282" y="700"/>
      <point x="97" y="508"/>
      <point x="97" y="266" type="curve" smooth="yes"/>
      <point x="97" y="11"/>
      <point x="262" y="-160"/>
      <point x="511" y="-160" type="curve" smooth="yes"/>
      <point x="632" y="-160"/>
      <point x="718" y="-136"/>
      <point x="808" y="-87" type="curve"/>
      <point x="824" y="-114" type="line"/>
      <point x="731" y="-164"/>
      <point x="639" y="-192"/>
      <point x="509" y="-192" type="curve" smooth="yes"/>
      <point x="239" y="-192"/>
      <point x="59" y="-10"/>
      <point x="59" y="265" type="curve" smooth="yes"/>
      <point x="59" y="529"/>
      <point x="269" y="732"/>
      <point x="523" y="732" type="curve" smooth="yes"/>
      <point x="762" y="732"/>
      <point x="947" y="574"/>
    </contour>
    <contour>
      <point x="612" y="317" type="curve" smooth="yes"/>
      <point x="612" y="391"/>
      <point x="571" y="467"/>
      <point x="506" y="467" type="curve" smooth="yes"/>
      <point x="422" y="467"/>
      <point x="357" y="353"/>
      <point x="357" y="206" type="curve" smooth="yes"/>
      <point x="357" y="126"/>
      <point x="390" y="74"/>
      <point x="448" y="74" type="curve" smooth="yes"/>
      <point x="530" y="74"/>
      <point x="612" y="202"/>
    </contour>
  </outline>
</glyph>
<glyph name="A" format="1">
  <advance width="666"/>
  <unicode hex="0041"/>
  <outline>
    <contour>
      <point x="638" y="0" type="line"/>
      <point x="565" y="0" type="line"/>
      <point x="499" y="192" type="line"/>
      <point x="164" y="192" type="line"/>
      <point x="98" y="0" type="line"/>
      <point x="28" y="0" type="line"/>
      <point x="284" y="724" type="line"/>
      <point x="382" y="724" type="line"/>
    </contour>
    <contour>
      <point x="483" y="244" type="line"/>
      <point x="336" y="667" type="line"/>
      <point x="327" y="667" type="line"/>
      <point x="180" y="244" type="line"/>
    </contour>
  </outline>
</glyph>
<glyph name="B" format="1">
  <advance width="610"/>
  <unicode hex="0042"/>
  <outline>
    <contour>
      <point x="566" y="200" type="curve" smooth="yes"/>
      <point x="566" y="70"/>
      <point x="462" y="0"/>
      <point x="323" y="0" type="curve" smooth="yes"/>
      <point x="84" y="0" type="line"/>
      <point x="84" y="720" type="line"/>
      <point x="328" y="720" type="line" smooth="yes"/>
      <point x="457" y="720"/>
      <point x="537" y="655"/>
      <point x="537" y="549" type="curve" smooth="yes"/>
      <point x="537" y="453"/>
      <point x="474" y="409"/>
      <point x="407" y="391" type="curve"/>
      <point x="407" y="387" type="line"/>
      <point x="501" y="367"/>
      <point x="566" y="312"/>
    </contour>
    <contour>
      <point x="467" y="543" type="curve" smooth="yes"/>
      <point x="467" y="623"/>
      <point x="412" y="666"/>
      <point x="319" y="666" type="curve" smooth="yes"/>
      <point x="152" y="666" type="line"/>
      <point x="152" y="411" type="line"/>
      <point x="313" y="411" type="line" smooth="yes"/>
      <point x="407" y="411"/>
      <point x="467" y="454"/>
    </contour>
    <contour>
      <point x="496" y="202" type="curve" smooth="yes"/>
      <point x="496" y="302"/>
      <point x="441" y="360"/>
      <point x="316" y="360" type="curve" smooth="yes"/>
      <point x="152" y="360" type="line"/>
      <point x="152" y="54" type="line"/>
      <point x="317" y="54" type="line" smooth="yes"/>
      <point x="425" y="54"/>
      <point x="496" y="102"/>
    </contour>
  </outline>
</glyph>
<glyph name="C" format="1">
  <advance width="579"/>
  <unicode hex="0043"/>
  <outline>
    <contour>
      <point x="540" y="206" type="line"/>
      <point x="511" y="77"/>
      <point x="439" y="-12"/>
      <point x="308" y="-12" type="curve" smooth="yes"/>
      <point x="149" y="-12"/>
      <point x="53" y="129"/>
      <point x="53" y="353" type="curve" smooth="yes"/>
      <point x="53" y="366" type="line" smooth="yes"/>
      <point x="53" y="589"/>
      <point x="148" y="732"/>
      <point x="309" y="732" type="curve" smooth="yes"/>
      <point x="435" y="732"/>
      <point x="507" y="653"/>
      <point x="535" y="528" type="curve"/>
      <point x="470" y="509" type="line"/>
      <point x="444" y="617"/>
      <point x="395" y="676"/>
      <point x="309" y="676" type="curve" smooth="yes"/>
      <point x="185" y="676"/>
      <point x="125" y="548"/>
      <point x="125" y="372" type="curve" smooth="yes"/>
      <point x="125" y="350" type="line" smooth="yes"/>
      <point x="125" y="173"/>
      <point x="185" y="44"/>
      <point x="310" y="44" type="curve" smooth="yes"/>
      <point x="401" y="44"/>
      <point x="451" y="114"/>
      <point x="475" y="223" type="curve"/>
    </contour>
  </outline>
</glyph>
<glyph name="E" format="1">
  <advance width="556"/>
  <unicode hex="0045"/>
  <outline>
    <contour>
      <point x="517" y="0" type="line"/>
      <point x="84" y="0" type="line"/>
      <point x="84" y="720" type="line"/>
      <point x="505" y="720" type="line"/>
      <point x="505" y="663" type="line"/>
      <point x="155" y="663" type="line"/>
      <point x="155" y="404" type="line"/>
      <point x="447" y="404" type="line"/>
      <point x="447" y="349" type="line"/>
      <point x="155" y="349" type="line"/>
      <point x="155" y="57" type="line"/>
      <point x="517" y="57" type="line"/>
    </contour>
  </outline>
</glyph>
<glyph name="G" format="1">
  <advance width="618"/>
  <unicode hex="0047"/>
  <outline>
    <contour>
      <point x="560" y="0" type="line"/>
      <point x="520" y="0" type="line"/>
      <point x="515" y="209" type="line"/>
      <point x="510" y="209" type="line"/>
      <point x="479" y="74"/>
      <point x="421" y="-12"/>
      <point x="299" y="-12" type="curve" smooth="yes"/>
      <point x="148" y="-12"/>
      <point x="53" y="129"/>
      <point x="53" y="353" type="curve" smooth="yes"/>
      <point x="53" y="366" type="line" smooth="yes"/>
      <point x="53" y="589"/>
      <point x="149" y="732"/>
      <point x="306" y="732" type="curve" smooth="yes"/>
      <point x="428" y="732"/>
      <point x="499" y="656"/>
      <point x="533" y="543" type="curve"/>
      <point x="467" y="522" type="line"/>
      <point x="439" y="617"/>
      <point x="390" y="676"/>
      <point x="306" y="676" type="curve" smooth="yes"/>
      <point x="186" y="676"/>
      <point x="125" y="549"/>
      <point x="125" y="372" type="curve" smooth="yes"/>
      <point x="125" y="350" type="line" smooth="yes"/>
      <point x="125" y="171"/>
      <point x="190" y="44"/>
      <point x="305" y="44" type="curve" smooth="yes"/>
      <point x="409" y="44"/>
      <point x="462" y="135"/>
      <point x="478" y="292" type="curve"/>
      <point x="315" y="292" type="line"/>
      <point x="315" y="334" type="line"/>
      <point x="560" y="334" type="line"/>
    </contour>
  </outline>
</glyph>
<glyph name="I" format="1">
  <advance width="387"/>
  <unicode hex="0049"/>
  <outline>
    <contour>
      <point x="332" y="0" type="line"/>
      <point x="55" y="0" type="line"/>
      <point x="55" y="38" type="line"/>
      <point x="158" y="38" type="line"/>
      <point x="158" y="682" type="line"/>
      <point x="55" y="682" type="line"/>
      <point x="55" y="720" type="line"/>
      <point x="332" y="720" type="line"/>
      <point x="332" y="682" type="line"/>
      <point x="229" y="682" type="line"/>
      <point x="229" y="38" type="line"/>
      <point x="332" y="38" type="line"/>
    </contour>
  </outline>
</glyph>
<glyph name="J" format="1">
  <advance width="486"/>
  <unicode hex="004A"/>
  <outline>
    <contour>
      <point x="408" y="201" type="line" smooth="yes"/>
      <point x="408" y="68"/>
      <point x="341" y="-12"/>
      <point x="218" y="-12" type="curve" smooth="yes"/>
      <point x="101" y="-12"/>
      <point x="29" y="47"/>
      <point x="25" y="182" type="curve"/>
      <point x="92" y="203" type="line"/>
      <point x="94" y="81"/>
      <point x="148" y="45"/>
      <point x="220" y="45" type="curve" smooth="yes"/>
      <point x="290" y="45"/>
      <point x="336" y="92"/>
      <point x="336" y="198" type="curve" smooth="yes"/>
      <point x="336" y="720" type="line"/>
      <point x="408" y="720" type="line"/>
    </contour>
  </outline>
</glyph>
<glyph name="K" format="1">
  <advance width="591"/>
  <unicode hex="004B"/>
  <outline>
    <contour>
      <point x="593" y="0" type="line"/>
      <point x="508" y="0" type="line"/>
      <point x="188" y="389" type="line"/>
      <point x="188" y="391" type="line"/>
      <point x="493" y="720" type="line"/>
      <point x="576" y="720" type="line"/>
      <point x="268" y="392" type="line"/>
    </contour>
    <contour>
      <point x="156" y="0" type="line"/>
      <point x="84" y="0" type="line"/>
      <point x="84" y="720" type="line"/>
      <point x="156" y="720" type="line"/>
    </contour>
  </outline>
</glyph>
<glyph name="L" format="1">
  <advance width="510"/>
  <unicode hex="004C"/>
  <outline>
    <contour>
      <point x="493" y="0" type="line"/>
      <point x="84" y="0" type="line"/>
      <point x="84" y="720" type="line"/>
      <point x="156" y="720" type="line"/>
      <point x="156" y="59" type="line"/>
      <point x="493" y="59" type="line"/>
    </contour>
  </outline>
</glyph>
<glyph name="M" format="1">
  <advance width="830"/>
  <unicode hex="004D"/>
  <outline>
    <contour>
      <point x="746" y="0" type="line"/>
      <point x="677" y="0" type="line"/>
      <point x="677" y="654" type="line"/>
      <point x="667" y="654" type="line"/>
      <point x="454" y="0" type="line"/>
      <point x="373" y="0" type="line"/>
      <point x="160" y="654" type="line"/>
      <point x="150" y="654" type="line"/>
      <point x="150" y="0" type="line"/>
      <point x="84" y="0" type="line"/>
      <point x="84" y="720" type="line"/>
      <point x="208" y="720" type="line"/>
      <point x="412" y="84" type="line"/>
      <point x="420" y="84" type="line"/>
      <point x="624" y="720" type="line"/>
      <point x="746" y="720" type="line"/>
    </contour>
  </outline>
</glyph>
<glyph name="Q" format="1">
  <advance width="617"/>
  <unicode hex="0051"/>
  <outline>
    <contour>
      <point x="604" y="-99" type="line"/>
      <point x="591" y="-103"/>
      <point x="576" y="-104"/>
      <point x="563" y="-104" type="curve" smooth="yes"/>
      <point x="512" y="-104"/>
      <point x="485" y="-89"/>
      <point x="452" y="-41" type="curve" smooth="yes"/>
      <point x="414" y="14" type="line"/>
      <point x="383" y="-3"/>
      <point x="348" y="-12"/>
      <point x="308" y="-12" type="curve" smooth="yes"/>
      <point x="148" y="-12"/>
      <point x="53" y="129"/>
      <point x="53" y="353" type="curve" smooth="yes"/>
      <point x="53" y="366" type="line" smooth="yes"/>
      <point x="53" y="589"/>
      <point x="148" y="732"/>
      <point x="308" y="732" type="curve" smooth="yes"/>
      <point x="469" y="732"/>
      <point x="564" y="591"/>
      <point x="564" y="367" type="curve" smooth="yes"/>
      <point x="564" y="354" type="line" smooth="yes"/>
      <point x="564" y="212"/>
      <point x="524" y="102"/>
      <point x="456" y="41" type="curve"/>
      <point x="494" y="-12" type="line" smooth="yes"/>
      <point x="514" y="-40"/>
      <point x="534" y="-53"/>
      <point x="565" y="-53" type="curve" smooth="yes"/>
      <point x="577" y="-53"/>
      <point x="591" y="-51"/>
      <point x="604" y="-48" type="curve"/>
    </contour>
    <contour>
      <point x="491" y="345" type="curve" smooth="yes"/>
      <point x="491" y="370" type="line" smooth="yes"/>
      <point x="491" y="548"/>
      <point x="432" y="676"/>
      <point x="308" y="676" type="curve" smooth="yes"/>
      <point x="185" y="676"/>
      <point x="125" y="549"/>
      <point x="125" y="372" type="curve" smooth="yes"/>
      <point x="125" y="347" type="line" smooth="yes"/>
      <point x="125" y="168"/>
      <point x="185" y="40"/>
      <point x="308" y="40" type="curve" smooth="yes"/>
      <point x="338" y="40"/>
      <point x="364" y="47"/>
      <point x="386" y="60" type="curve"/>
      <point x="294" y="195" type="line"/>
      <point x="326" y="216" type="line"/>
      <point x="417" y="90" type="line"/>
      <point x="468" y="141"/>
      <point x="491" y="233"/>
    </contour>
  </outline>
</glyph>
<glyph name="R" format="1">
  <advance width="598"/>
  <unicode hex="0052"/>
  <outline>
    <contour>
      <point x="560" y="0" type="line"/>
      <point x="480" y="0" type="line"/>
      <point x="278" y="320" type="line"/>
      <point x="156" y="320" type="line"/>
      <point x="156" y="0" type="line"/>
      <point x="84" y="0" type="line"/>
      <point x="84" y="720" type="line"/>
      <point x="307" y="720" type="line" smooth="yes"/>
      <point x="454" y="720"/>
      <point x="540" y="654"/>
      <point x="540" y="521" type="curve" smooth="yes"/>
      <point x="540" y="406"/>
      <point x="473" y="339"/>
      <point x="351" y="327" type="curve"/>
    </contour>
    <contour>
      <point x="469" y="519" type="curve" smooth="yes"/>
      <point x="469" y="617"/>
      <point x="411" y="666"/>
      <point x="298" y="666" type="curve" smooth="yes"/>
      <point x="154" y="666" type="line"/>
      <point x="154" y="373" type="line"/>
      <point x="302" y="373" type="line" smooth="yes"/>
      <point x="410" y="373"/>
      <point x="469" y="418"/>
    </contour>
  </outline>
</glyph>
<glyph name="T" format="1">
  <advance width="561"/>
  <unicode hex="0054"/>
  <outline>
    <contour>
      <point x="542" y="661" type="line"/>
      <point x="316" y="661" type="line"/>
      <point x="316" y="0" type="line"/>
      <point x="245" y="0" type="line"/>
      <point x="245" y="661" type="line"/>
      <point x="20" y="661" type="line"/>
      <point x="20" y="720" type="line"/>
      <point x="542" y="720" type="line"/>
    </contour>
  </outline>
</glyph>
<glyph name="U" format="1">
  <advance width="625"/>
  <unicode hex="0055"/>
  <outline>
    <contour>
      <point x="546" y="247" type="line" smooth="yes"/>
      <point x="546" y="64"/>
      <point x="446" y="-12"/>
      <point x="312" y="-12" type="curve" smooth="yes"/>
      <point x="178" y="-12"/>
      <point x="79" y="64"/>
      <point x="79" y="247" type="curve" smooth="yes"/>
      <point x="79" y="720" type="line"/>
      <point x="150" y="720" type="line"/>
      <point x="150" y="248" type="line" smooth="yes"/>
      <point x="150" y="104"/>
      <point x="217" y="45"/>
      <point x="315" y="45" type="curve" smooth="yes"/>
      <point x="413" y="45"/>
      <point x="479" y="101"/>
      <point x="479" y="244" type="curve" smooth="yes"/>
      <point x="479" y="720" type="line"/>
      <point x="546" y="720" type="line"/>
    </contour>
  </outline>
</glyph>
<glyph name="V" format="1">
  <advance width="616"/>
  <unicode hex="0056"/>
  <outline>
    <contour>
      <point x="588" y="720" type="line"/>
      <point x="350" y="-7" type="line"/>
      <point x="266" y="-7" type="line"/>
      <point x="28" y="720" type="line"/>
      <point x="102" y="720" type="line"/>
      <point x="307" y="66" type="line"/>
      <point x="312" y="66" type="line"/>
      <point x="517" y="720" type="line"/>
    </contour>
  </outline>
</glyph>
<glyph name="X" format="1">
  <advance width="627"/>
  <unicode hex="0058"/>
  <outline>
    <contour>
      <point x="598" y="0" type="line"/>
      <point x="517" y="0" type="line"/>
      <point x="311" y="317" type="line"/>
      <point x="103" y="0" type="line"/>
      <point x="30" y="0" type="line"/>
      <point x="276" y="368" type="line"/>
      <point x="45" y="720" type="line"/>
      <point x="125" y="720" type="line"/>
      <point x="316" y="426" type="line"/>
      <point x="509" y="720" type="line"/>
      <point x="582" y="720" type="line"/>
      <point x="351" y="375" type="line"/>
    </contour>
  </outline>
</glyph>
<glyph name="Y" format="1">
  <advance width="616"/>
  <unicode hex="0059"/>
  <outline>
    <contour>
      <point x="599" y="720" type="line"/>
      <point x="344" y="278" type="line"/>
      <point x="344" y="0" type="line"/>
      <point x="272" y="0" type="line"/>
      <point x="272" y="277" type="line"/>
      <point x="17" y="720" type="line"/>
      <point x="95" y="720" type="line"/>
      <point x="311" y="337" type="line"/>
      <point x="526" y="720" type="line"/>
    </contour>
  </outline>
</glyph>
<glyph name="Z" format="1">
  <advance width="547"/>
  <unicode hex="005A"/>
  <outline>
    <contour>
      <point x="510" y="0" type="line"/>
      <point x="36" y="0" type="line"/>
      <point x="36" y="49" type="line"/>
      <point x="429" y="663" type="line"/>
      <point x="55" y="663" type="line"/>
      <point x="55" y="720" type="line"/>
      <point x="510" y="720" type="line"/>
      <point x="510" y="671" type="line"/>
      <point x="117" y="57" type="line"/>
      <point x="510" y="57" type="line"/>
    </contour>
  </outline>
</glyph>
<glyph name="bracketleft" format="1">
  <advance width="339"/>
  <unicode hex="005B"/>
  <outline>
    <contour>
      <point x="314" y="-80" type="line"/>
      <point x="69" y="-88" type="line"/>
      <point x="69" y="728" type="line"/>
      <point x="314" y="720" type="line"/>
      <point x="314" y="681" type="line"/>
      <point x="134" y="688" type="line"/>
      <point x="134" y="-48" type="line"/>
      <point x="314" y="-41" type="line"/>
    </contour>
  </outline>
</glyph>
<glyph name="bracketright" format="1">
  <advance width="339"/>
  <unicode hex="005D"/>
  <outline>
    <contour>
      <point x="270" y="-88" type="line"/>
      <point x="25" y="-80" type="line"/>
      <point x="25" y="-41" type="line"/>
      <point x="206" y="-48" type="line"/>
      <point x="206" y="688" type="line"/>
      <point x="25" y="681" type="line"/>
      <point x="25" y="720" type="line"/>
      <point x="270" y="728" type="line"/>
    </contour>
  </outline>
</glyph>
<glyph name="asciicircum" format="1">
  <advance width="550"/>
  <unicode hex="005E"/>
  <outline>
    <contour>
      <point x="499" y="407" type="line"/>
      <point x="452" y="407" type="line"/>
      <point x="275" y="661" type="line"/>
      <point x="98" y="407" type="line"/>
      <point x="51" y="407" type="line"/>
      <point x="241" y="725" type="line"/>
      <point x="309" y="725" type="line"/>
    </contour>
  </outline>
</glyph>
<glyph name="underscore" format="1">
  <advance width="500"/>
  <unicode hex="005F"/>
  <outline>
    <contour>
      <point x="503" y="-86" type="line"/>
      <point x="-3" y="-86" type="line"/>
      <point x="-3" y="-45" type="line"/>
      <point x="503" y="-45" type="line"/>
    </contour>
  </outline>
</glyph>
<glyph name="grave" format="1">
  <advance width="500"/>
  <unicode hex="0060"/>
  <outline>
    <contour>
      <point x="330" y="592" type="line"/>
      <point x="285" y="592" type="line"/>
      <point x="148" y="743" type="line"/>
      <point x="239" y="743" type="line"/>
    </contour>
  </outline>
</glyph>
<glyph name="e" format="1">
  <advance width="459"/>
  <unicode hex="0065"/>
  <outline>
    <contour>
      <point x="419" y="246" type="line"/>
      <point x="106" y="246" type="line"/>
      <point x="108" y="110"/>
      <point x="165" y="39"/>
      <point x="254" y="39" type="curve" smooth="yes"/>
      <point x="306" y="39"/>
      <point x="347" y="61"/>
      <point x="388" y="100" type="curve"/>
      <point x="415" y="61" type="line"/>
      <point x="369" y="18"/>
      <point x="318" y="-10"/>
      <point x="247" y="-10" type="curve" smooth="yes"/>
      <point x="126" y="-10"/>
      <point x="42" y="86"/>
      <point x="42" y="255" type="curve" smooth="yes"/>
      <point x="42" y="261" type="line" smooth="yes"/>
      <point x="42" y="417"/>
      <point x="121" y="527"/>
      <point x="235" y="527" type="curve" smooth="yes"/>
      <point x="350" y="527"/>
      <point x="419" y="421"/>
      <point x="419" y="258" type="curve" smooth="yes"/>
    </contour>
    <contour>
      <point x="355" y="285" type="line"/>
      <point x="348" y="413"/>
      <point x="310" y="482"/>
      <point x="235" y="482" type="curve" smooth="yes"/>
      <point x="158" y="482"/>
      <point x="112" y="405"/>
      <point x="107" y="285" type="curve"/>
    </contour>
  </outline>
</glyph>
<glyph name="f" format="1">
  <advance width="325"/>
  <unicode hex="0066"/>
  <outline>
    <contour>
      <point x="342" y="691" type="line"/>
      <point x="320" y="703"/>
      <point x="295" y="711"/>
      <point x="257" y="711" type="curve" smooth="yes"/>
      <point x="212" y="711"/>
      <point x="187" y="684"/>
      <point x="187" y="625" type="curve" smooth="yes"/>
      <point x="187" y="512" type="line"/>
      <point x="316" y="512" type="line"/>
      <point x="316" y="464" type="line"/>
      <point x="187" y="464" type="line"/>
      <point x="187" y="0" type="line"/>
      <point x="121" y="0" type="line"/>
      <point x="121" y="464" type="line"/>
      <point x="17" y="464" type="line"/>
      <point x="17" y="512" type="line"/>
      <point x="121" y="512" type="line"/>
      <point x="121" y="622" type="line" smooth="yes"/>
      <point x="121" y="714"/>
      <point x="172" y="759"/>
      <point x="251" y="759" type="curve" smooth="yes"/>
      <point x="293" y="759"/>
      <point x="318" y="754"/>
      <point x="342" y="746" type="curve"/>
    </contour>
  </outline>
</glyph>
<glyph name="j" format="1">
  <advance width="224"/>
  <unicode hex="006A"/>
  <outline>
    <contour>
      <point x="153" y="637" type="line"/>
      <point x="71" y="637" type="line"/>
      <point x="71" y="722" type="line"/>
      <point x="153" y="722" type="line"/>
    </contour>
    <contour>
      <point x="145" y="-60" type="line" smooth="yes"/>
      <point x="145" y="-151"/>
      <point x="103" y="-190"/>
      <point x="25" y="-190" type="curve" smooth="yes"/>
      <point x="-1" y="-190"/>
      <point x="-17" y="-187"/>
      <point x="-35" y="-181" type="curve"/>
      <point x="-35" y="-132" type="line"/>
      <point x="-17" y="-139"/>
      <point x="-3" y="-142"/>
      <point x="18" y="-142" type="curve" smooth="yes"/>
      <point x="56" y="-142"/>
      <point x="79" y="-122"/>
      <point x="79" y="-65" type="curve" smooth="yes"/>
      <point x="79" y="517" type="line"/>
      <point x="145" y="517" type="line"/>
    </contour>
  </outline>
</glyph>
<glyph name="m" format="1">
  <advance width="776"/>
  <unicode hex="006D"/>
  <outline>
    <contour>
      <point x="711" y="0" type="line"/>
      <point x="644" y="0" type="line"/>
      <point x="644" y="391" type="line" smooth="yes"/>
      <point x="644" y="445"/>
      <point x="622" y="473"/>
      <point x="577" y="473" type="curve" smooth="yes"/>
      <point x="528" y="473"/>
      <point x="474" y="428"/>
      <point x="423" y="346" type="curve"/>
      <point x="423" y="0" type="line"/>
      <point x="357" y="0" type="line"/>
      <point x="357" y="391" type="line" smooth="yes"/>
      <point x="357" y="445"/>
      <point x="335" y="473"/>
      <point x="290" y="473" type="curve" smooth="yes"/>
      <point x="241" y="473"/>
      <point x="187" y="428"/>
      <point x="136" y="346" type="curve"/>
      <point x="136" y="0" type="line"/>
      <point x="70" y="0" type="line"/>
      <point x="70" y="503" type="line"/>
      <point x="136" y="526" type="line"/>
      <point x="136" y="393" type="line"/>
      <point x="142" y="393" type="line"/>
      <point x="196" y="471"/>
      <point x="249" y="522"/>
      <point x="320" y="522" type="curve" smooth="yes"/>
      <point x="389" y="522"/>
      <point x="423" y="476"/>
      <point x="423" y="412" type="curve" smooth="yes"/>
      <point x="423" y="393" type="line"/>
      <point x="429" y="393" type="line"/>
      <point x="483" y="471"/>
      <point x="536" y="522"/>
      <point x="607" y="522" type="curve" smooth="yes"/>
      <point x="678" y="522"/>
      <point x="711" y="474"/>
      <point x="711" y="405" type="curve" smooth="yes"/>
    </contour>
  </outline>
</glyph>
<glyph name="o" format="1">
  <advance width="492"/>
  <unicode hex="006F"/>
  <outline>
    <contour>
      <point x="449" y="256" type="line" smooth="yes"/>
      <point x="449" y="100"/>
      <point x="371" y="-10"/>
      <point x="246" y="-10" type="curve" smooth="yes"/>
      <point x="121" y="-10"/>
      <point x="42" y="98"/>
      <point x="42" y="254" type="curve" smooth="yes"/>
      <point x="42" y="261" type="line" smooth="yes"/>
      <point x="42" y="417"/>
      <point x="121" y="527"/>
      <point x="246" y="527" type="curve" smooth="yes"/>
      <point x="371" y="527"/>
      <point x="449" y="419"/>
      <point x="449" y="263" type="curve" smooth="yes"/>
    </contour>
    <contour>
      <point x="383" y="254" type="curve" smooth="yes"/>
      <point x="383" y="261" type="line" smooth="yes"/>
      <point x="383" y="393"/>
      <point x="334" y="481"/>
      <point x="246" y="481" type="curve" smooth="yes"/>
      <point x="158" y="481"/>
      <point x="108" y="394"/>
      <point x="108" y="263" type="curve" smooth="yes"/>
      <point x="108" y="256" type="line" smooth="yes"/>
      <point x="108" y="123"/>
      <point x="158" y="36"/>
      <point x="246" y="36" type="curve" smooth="yes"/>
      <point x="334" y="36"/>
      <point x="383" y="123"/>
    </contour>
  </outline>
</glyph>
<glyph name="t" format="1">
  <advance width="355"/>
  <unicode hex="0074"/>
  <outline>
    <contour>
      <point x="334" y="24" type="line"/>
      <point x="294" y="1"/>
      <point x="259" y="-10"/>
      <point x="218" y="-10" type="curve" smooth="yes"/>
      <point x="156" y="-10"/>
      <point x="112" y="19"/>
      <point x="112" y="95" type="curve" smooth="yes"/>
      <point x="112" y="464" type="line"/>
      <point x="17" y="464" type="line"/>
      <point x="17" y="512" type="line"/>
      <point x="112" y="512" type="line"/>
      <point x="112" y="682" type="line"/>
      <point x="178" y="731" type="line"/>
      <point x="178" y="512" type="line"/>
      <point x="309" y="512" type="line"/>
      <point x="309" y="464" type="line"/>
      <point x="178" y="464" type="line"/>
      <point x="178" y="107" type="line" smooth="yes"/>
      <point x="178" y="62"/>
      <point x="202" y="42"/>
      <point x="235" y="42" type="curve" smooth="yes"/>
      <point x="264" y="42"/>
      <point x="293" y="52"/>
      <point x="334" y="78" type="curve"/>
    </contour>
  </outline>
</glyph>
<glyph name="u" format="1">
  <advance width="493"/>
  <unicode hex="0075"/>
  <outline>
    <contour>
      <point x="423" y="13" type="line"/>
      <point x="357" y="-9" type="line"/>
      <point x="357" y="124" type="line"/>
      <point x="351" y="124" type="line"/>
      <point x="297" y="46"/>
      <point x="241" y="-5"/>
      <point x="171" y="-5" type="curve" smooth="yes"/>
      <point x="100" y="-5"/>
      <point x="66" y="42"/>
      <point x="66" y="112" type="curve" smooth="yes"/>
      <point x="66" y="517" type="line"/>
      <point x="132" y="517" type="line"/>
      <point x="132" y="126" type="line" smooth="yes"/>
      <point x="132" y="72"/>
      <point x="156" y="44"/>
      <point x="201" y="44" type="curve" smooth="yes"/>
      <point x="250" y="44"/>
      <point x="306" y="88"/>
      <point x="357" y="171" type="curve"/>
      <point x="357" y="517" type="line"/>
      <point x="423" y="517" type="line"/>
    </contour>
  </outline>
</glyph>
<glyph name="v" format="1">
  <advance width="462"/>
  <unicode hex="0076"/>
  <outline>
    <contour>
      <point x="436" y="517" type="line"/>
      <point x="266" y="-6" type="line"/>
      <point x="196" y="-6" type="line"/>
      <point x="26" y="517" type="line"/>
      <point x="95" y="517" type="line"/>
      <point x="233" y="64" type="line"/>
      <point x="371" y="517" type="line"/>
    </contour>
  </outline>
</glyph>
<glyph name="w" format="1">
  <advance width="753"/>
  <unicode hex="0077"/>
  <outline>
    <contour>
      <point x="725" y="517" type="line"/>
      <point x="565" y="-4" type="line"/>
      <point x="498" y="-4" type="line"/>
      <point x="377" y="434" type="line"/>
      <point x="256" y="-4" type="line"/>
      <point x="188" y="-4" type="line"/>
      <point x="28" y="517" type="line"/>
      <point x="97" y="517" type="line"/>
      <point x="224" y="68" type="line"/>
      <point x="346" y="517" type="line"/>
      <point x="411" y="517" type="line"/>
      <point x="532" y="68" type="line"/>
      <point x="660" y="517" type="line"/>
    </contour>
  </outline>
</glyph>
<glyph name="bar" format="1">
  <advance width="236"/>
  <unicode hex="007C"/>
  <outline>
    <contour>
      <point x="149" y="-188" type="line"/>
      <point x="87" y="-188" type="line"/>
      <point x="87" y="762" type="line"/>
      <point x="149" y="762" type="line"/>
    </contour>
  </outline>
</glyph>
<glyph name="braceright" format="1">
  <advance width="383"/>
  <unicode hex="007D"/>
  <outline>
    <contour>
      <point x="359" y="300" type="line"/>
      <point x="284" y="300"/>
      <point x="228" y="272"/>
      <point x="228" y="201" type="curve" smooth="yes"/>
      <point x="228" y="159"/>
      <point x="248" y="90"/>
      <point x="248" y="44" type="curve" smooth="yes"/>
      <point x="248" y="-35"/>
      <point x="203" y="-80"/>
      <point x="114" y="-80" type="curve" smooth="yes"/>
      <point x="33" y="-80" type="line"/>
      <point x="33" y="-41" type="line"/>
      <point x="100" y="-41" type="line" smooth="yes"/>
      <point x="157" y="-41"/>
      <point x="184" y="-5"/>
      <point x="184" y="40" type="curve" smooth="yes"/>
      <point x="184" y="81"/>
      <point x="164" y="143"/>
      <point x="164" y="193" type="curve" smooth="yes"/>
      <point x="164" y="270"/>
      <point x="213" y="297"/>
      <point x="269" y="316" type="curve"/>
      <point x="269" y="324" type="line"/>
      <point x="213" y="343"/>
      <point x="164" y="370"/>
      <point x="164" y="447" type="curve" smooth="yes"/>
      <point x="164" y="497"/>
      <point x="184" y="559"/>
      <point x="184" y="600" type="curve" smooth="yes"/>
      <point x="184" y="645"/>
      <point x="157" y="681"/>
      <point x="100" y="681" type="curve" smooth="yes"/>
      <point x="33" y="681" type="line"/>
      <point x="33" y="720" type="line"/>
      <point x="114" y="720" type="line" smooth="yes"/>
      <point x="203" y="720"/>
      <point x="248" y="675"/>
      <point x="248" y="596" type="curve" smooth="yes"/>
      <point x="248" y="550"/>
      <point x="228" y="481"/>
      <point x="228" y="439" type="curve" smooth="yes"/>
      <point x="228" y="368"/>
      <point x="284" y="340"/>
      <point x="359" y="340" type="curve"/>
    </contour>
  </outline>
</glyph>
<glyph name="section" format="1">
  <advance width="576"/>
  <unicode hex="00A7"/>
  <outline>
    <contour>
      <point x="537" y="349" type="curve" smooth="yes"/>
      <point x="537" y="286"/>
      <point x="476" y="232"/>
      <point x="367" y="225" type="curve"/>
      <point x="367" y="219" type="line"/>
      <point x="443" y="196"/>
      <point x="473" y="157"/>
      <point x="473" y="105" type="curve" smooth="yes"/>
      <point x="473" y="34"/>
      <point x="401" y="-12"/>
      <point x="298" y="-12" type="curve" smooth="yes"/>
      <point x="220" y="-12"/>
      <point x="166" y="3"/>
      <point x="100" y="38" type="curve"/>
      <point x="128" y="85" type="line"/>
      <point x="185" y="52"/>
      <point x="236" y="36"/>
      <point x="301" y="36" type="curve" smooth="yes"/>
      <point x="369" y="36"/>
      <point x="413" y="64"/>
      <point x="413" y="102" type="curve" smooth="yes"/>
      <point x="413" y="147"/>
      <point x="394" y="176"/>
      <point x="239" y="218" type="curve" smooth="yes"/>
      <point x="96" y="257"/>
      <point x="39" y="305"/>
      <point x="39" y="371" type="curve" smooth="yes"/>
      <point x="39" y="434"/>
      <point x="100" y="488"/>
      <point x="209" y="495" type="curve"/>
      <point x="209" y="501" type="line"/>
      <point x="133" y="524"/>
      <point x="103" y="563"/>
      <point x="103" y="615" type="curve" smooth="yes"/>
      <point x="103" y="686"/>
      <point x="175" y="732"/>
      <point x="278" y="732" type="curve" smooth="yes"/>
      <point x="356" y="732"/>
      <point x="410" y="717"/>
      <point x="476" y="682" type="curve"/>
      <point x="448" y="635" type="line"/>
      <point x="391" y="668"/>
      <point x="340" y="684"/>
      <point x="275" y="684" type="curve" smooth="yes"/>
      <point x="207" y="684"/>
      <point x="163" y="656"/>
      <point x="163" y="618" type="curve" smooth="yes"/>
      <point x="163" y="573"/>
      <point x="182" y="544"/>
      <point x="337" y="502" type="curve" smooth="yes"/>
      <point x="480" y="463"/>
      <point x="537" y="415"/>
    </contour>
    <contour>
      <point x="480" y="340" type="curve" smooth="yes"/>
      <point x="480" y="385"/>
      <point x="444" y="421"/>
      <point x="342" y="452" type="curve" smooth="yes"/>
      <point x="304" y="463"/>
      <point x="271" y="468"/>
      <point x="228" y="468" type="curve" smooth="yes"/>
      <point x="153" y="468"/>
      <point x="96" y="435"/>
      <point x="96" y="380" type="curve" smooth="yes"/>
      <point x="96" y="335"/>
      <point x="132" y="299"/>
      <point x="234" y="268" type="curve" smooth="yes"/>
      <point x="272" y="257"/>
      <point x="305" y="252"/>
      <point x="348" y="252" type="curve" smooth="yes"/>
      <point x="423" y="252"/>
      <point x="480" y="285"/>
    </contour>
  </outline>
</glyph>
<glyph name="dieresis" format="1">
  <advance width="500"/>
  <unicode hex="00A8"/>
  <outline>
    <contour>
      <point x="376" y="592" type="line"/>
      <point x="302" y="592" type="line"/>
      <point x="302" y="679" type="line"/>
      <point x="376" y="679" type="line"/>
    </contour>
    <contour>
      <point x="198" y="592" type="line"/>
      <point x="124" y="592" type="line"/>
      <point x="124" y="679" type="line"/>
      <point x="198" y="679" type="line"/>
    </contour>
  </outline>
</glyph>
<glyph name="copyright" format="1">
  <advance width="835"/>
  <unicode hex="00A9"/>
  <outline>
    <contour>
      <point x="790" y="360" type="curve" smooth="yes"/>
      <point x="790" y="150"/>
      <point x="628" y="-12"/>
      <point x="417" y="-12" type="curve" smooth="yes"/>
      <point x="207" y="-12"/>
      <point x="46" y="149"/>
      <point x="46" y="360" type="curve" smooth="yes"/>
      <point x="46" y="570"/>
      <point x="207" y="732"/>
      <point x="418" y="732" type="curve" smooth="yes"/>
      <point x="628" y="732"/>
      <point x="790" y="571"/>
    </contour>
    <contour>
      <point x="753" y="360" type="curve" smooth="yes"/>
      <point x="753" y="553"/>
      <point x="610" y="700"/>
      <point x="417" y="700" type="curve" smooth="yes"/>
      <point x="225" y="700"/>
      <point x="82" y="553"/>
      <point x="82" y="360" type="curve" smooth="yes"/>
      <point x="82" y="167"/>
      <point x="225" y="20"/>
      <point x="418" y="20" type="curve" smooth="yes"/>
      <point x="611" y="20"/>
      <point x="753" y="167"/>
    </contour>
    <contour>
      <point x="553" y="287" type="line"/>
      <point x="535" y="207"/>
      <point x="492" y="157"/>
      <point x="415" y="157" type="curve" smooth="yes"/>
      <point x="324" y="157"/>
      <point x="266" y="235"/>
      <point x="266" y="361" type="curve" smooth="yes"/>
      <point x="266" y="368" type="line" smooth="yes"/>
      <point x="266" y="494"/>
      <point x="323" y="572"/>
      <point x="416" y="572" type="curve" smooth="yes"/>
      <point x="490" y="572"/>
      <point x="533" y="528"/>
      <point x="551" y="451" type="curve"/>
      <point x="501" y="437" type="line"/>
      <point x="484" y="498"/>
      <point x="461" y="528"/>
      <point x="416" y="528" type="curve" smooth="yes"/>
      <point x="351" y="528"/>
      <point x="322" y="462"/>
      <point x="322" y="372" type="curve" smooth="yes"/>
      <point x="322" y="359" type="line" smooth="yes"/>
      <point x="322" y="269"/>
      <point x="351" y="202"/>
      <point x="416" y="202" type="curve" smooth="yes"/>
      <point x="464" y="202"/>
      <point x="489" y="237"/>
      <point x="504" y="301" type="curve"/>
    </contour>
  </outline>
</glyph>
<glyph name="paragraph" format="1">
  <advance width="528"/>
  <unicode hex="00B6"/>
  <outline>
    <contour>
      <point x="444" y="0" type="line"/>
      <point x="397" y="0" type="line"/>
      <point x="397" y="678" type="line"/>
      <point x="297" y="678" type="line"/>
      <point x="297" y="0" type="line"/>
      <point x="251" y="0" type="line"/>
      <point x="251" y="363" type="line"/>
      <point x="111" y="365"/>
      <point x="35" y="432"/>
      <point x="35" y="540" type="curve" smooth="yes"/>
      <point x="35" y="656"/>
      <point x="119" y="720"/>
      <point x="254" y="720" type="curve" smooth="yes"/>
      <point x="444" y="720" type="line"/>
    </contour>
  </outline>
</glyph>
<glyph name="ordmasculine" format="1">
  <advance width="378"/>
  <unicode hex="00BA"/>
  <outline>
    <contour>
      <point x="328" y="547" type="curve" smooth="yes"/>
      <point x="328" y="441"/>
      <point x="273" y="368"/>
      <point x="189" y="368" type="curve" smooth="yes"/>
      <point x="105" y="368"/>
      <point x="50" y="441"/>
      <point x="50" y="548" type="curve" smooth="yes"/>
      <point x="50" y="655"/>
      <point x="105" y="727"/>
      <point x="189" y="727" type="curve" smooth="yes"/>
      <point x="273" y="727"/>
      <point x="328" y="654"/>
    </contour>
    <contour>
      <point x="321" y="257" type="line"/>
      <point x="57" y="257" type="line"/>
      <point x="57" y="294" type="line"/>
      <point x="321" y="294" type="line"/>
    </contour>
    <contour>
      <point x="277" y="546" type="curve" smooth="yes"/>
      <point x="277" y="633"/>
      <point x="245" y="690"/>
      <point x="189" y="690" type="curve" smooth="yes"/>
      <point x="133" y="690"/>
      <point x="101" y="634"/>
      <point x="101" y="549" type="curve" smooth="yes"/>
      <point x="101" y="463"/>
      <point x="133" y="406"/>
      <point x="189" y="406" type="curve" smooth="yes"/>
      <point x="245" y="406"/>
      <point x="277" y="462"/>
    </contour>
  </outline>
</glyph>
<glyph name="guillemotright" format="1">
  <advance width="456"/>
  <unicode hex="00BB"/>
  <outline>
    <contour>
      <point x="428" y="258" type="line"/>
      <point x="271" y="78" type="line"/>
      <point x="226" y="78" type="line"/>
      <point x="352" y="258" type="line"/>
      <point x="226" y="439" type="line"/>
      <point x="271" y="439" type="line"/>
    </contour>
    <contour>
      <point x="236" y="258" type="line"/>
      <point x="79" y="78" type="line"/>
      <point x="34" y="78" type="line"/>
      <point x="160" y="258" type="line"/>
      <point x="34" y="439" type="line"/>
      <point x="79" y="439" type="line"/>
    </contour>
  </outline>
</glyph>
<glyph name="questiondown" format="1">
  <advance width="442"/>
  <unicode hex="00BF"/>
  <outline>
    <contour>
      <point x="289" y="679" type="curve" smooth="yes"/>
      <point x="289" y="652"/>
      <point x="269" y="631"/>
      <point x="241" y="631" type="curve" smooth="yes"/>
      <point x="214" y="631"/>
      <point x="194" y="652"/>
      <point x="194" y="679" type="curve" smooth="yes"/>
      <point x="194" y="706"/>
      <point x="214" y="727"/>
      <point x="241" y="727" type="curve" smooth="yes"/>
      <point x="269" y="727"/>
      <point x="289" y="706"/>
    </contour>
    <contour>
      <point x="421" y="129" type="line"/>
      <point x="384" y="40"/>
      <point x="324" y="-12"/>
      <point x="220" y="-12" type="curve" smooth="yes"/>
      <point x="113" y="-12"/>
      <point x="45" y="58"/>
      <point x="45" y="148" type="curve" smooth="yes"/>
      <point x="45" y="225"/>
      <point x="75" y="261"/>
      <point x="147" y="330" type="curve" smooth="yes"/>
      <point x="202" y="383"/>
      <point x="218" y="415"/>
      <point x="219" y="513" type="curve"/>
      <point x="263" y="513" type="line"/>
      <point x="267" y="395"/>
      <point x="254" y="355"/>
      <point x="189" y="293" type="curve" smooth="yes"/>
      <point x="137" y="242"/>
      <point x="115" y="203"/>
      <point x="115" y="151" type="curve" smooth="yes"/>
      <point x="115" y="88"/>
      <point x="155" y="43"/>
      <point x="223" y="43" type="curve" smooth="yes"/>
      <point x="296" y="43"/>
      <point x="335" y="78"/>
      <point x="368" y="153" type="curve"/>
    </contour>
  </outline>
</glyph>
<glyph name="AE" format="1">
  <advance width="916"/>
  <unicode hex="00C6"/>
  <outline>
    <contour>
      <point x="877" y="0" type="line"/>
      <point x="462" y="0" type="line"/>
      <point x="462" y="192" type="line"/>
      <point x="187" y="192" type="line"/>
      <point x="86" y="0" type="line"/>
      <point x="13" y="0" type="line"/>
      <point x="394" y="720" type="line"/>
      <point x="865" y="720" type="line"/>
      <point x="865" y="663" type="line"/>
      <point x="532" y="663" type="line"/>
      <point x="532" y="404" type="line"/>
      <point x="807" y="404" type="line"/>
      <point x="807" y="349" type="line"/>
      <point x="532" y="349" type="line"/>
      <point x="532" y="57" type="line"/>
      <point x="877" y="57" type="line"/>
    </contour>
    <contour>
      <point x="462" y="244" type="line"/>
      <point x="462" y="663" type="line"/>
      <point x="433" y="663" type="line"/>
      <point x="212" y="244" type="line"/>
    </contour>
  </outline>
</glyph>
<glyph name="Ccedilla" format="1">
  <advance width="579"/>
  <unicode hex="00C7"/>
  <outline>
    <contour>
      <point x="540" y="206" type="line"/>
      <point x="512" y="82"/>
      <point x="446" y="-4"/>
      <point x="324" y="-11" type="curve"/>
      <point x="299" y="-54" type="line"/>
      <point x="314" y="-48"/>
      <point x="328" y="-45"/>
      <point x="346" y="-45" type="curve" smooth="yes"/>
      <point x="389" y="-45"/>
      <point x="417" y="-64"/>
      <point x="417" y="-103" type="curve" smooth="yes"/>
      <point x="417" y="-164"/>
      <point x="343" y="-193"/>
      <point x="206" y="-191" type="curve"/>
      <point x="206" y="-167" type="line"/>
      <point x="321" y="-165"/>
      <point x="362" y="-144"/>
      <point x="362" y="-111" type="curve" smooth="yes"/>
      <point x="362" y="-93"/>
      <point x="348" y="-82"/>
      <point x="324" y="-82" type="curve" smooth="yes"/>
      <point x="302" y="-82"/>
      <point x="286" y="-86"/>
      <point x="269" y="-94" type="curve"/>
      <point x="246" y="-80" type="line"/>
      <point x="289" y="-11" type="line"/>
      <point x="141" y="0"/>
      <point x="53" y="139"/>
      <point x="53" y="353" type="curve" smooth="yes"/>
      <point x="53" y="366" type="line" smooth="yes"/>
      <point x="53" y="589"/>
      <point x="148" y="732"/>
      <point x="309" y="732" type="curve" smooth="yes"/>
      <point x="435" y="732"/>
      <point x="507" y="653"/>
      <point x="535" y="528" type="curve"/>
      <point x="470" y="509" type="line"/>
      <point x="444" y="617"/>
      <point x="395" y="676"/>
      <point x="309" y="676" type="curve" smooth="yes"/>
      <point x="185" y="676"/>
      <point x="125" y="548"/>
      <point x="125" y="372" type="curve" smooth="yes"/>
      <point x="125" y="350" type="line" smooth="yes"/>
      <point x="125" y="173"/>
      <point x="185" y="44"/>
      <point x="310" y="44" type="curve" smooth="yes"/>
      <point x="401" y="44"/>
      <point x="451" y="114"/>
      <point x="475" y="223" type="curve"/>
    </contour>
  </outline>
</glyph>
<glyph name="Eth" format="1">
  <advance width="657"/>
  <unicode hex="00D0"/>
  <outline>
    <contour>
      <point x="605" y="356" type="line" smooth="yes"/>
      <point x="605" y="131"/>
      <point x="491" y="0"/>
      <point x="292" y="0" type="curve" smooth="yes"/>
      <point x="120" y="0" type="line"/>
      <point x="120" y="348" type="line"/>
      <point x="28" y="348" type="line"/>
      <point x="28" y="405" type="line"/>
      <point x="120" y="405" type="line"/>
      <point x="120" y="720" type="line"/>
      <point x="296" y="720" type="line" smooth="yes"/>
      <point x="496" y="720"/>
      <point x="605" y="589"/>
      <point x="605" y="366" type="curve" smooth="yes"/>
    </contour>
    <contour>
      <point x="532" y="351" type="curve" smooth="yes"/>
      <point x="532" y="368" type="line" smooth="yes"/>
      <point x="532" y="561"/>
      <point x="448" y="664"/>
      <point x="291" y="664" type="curve" smooth="yes"/>
      <point x="189" y="664" type="line"/>
      <point x="189" y="405" type="line"/>
      <point x="330" y="405" type="line"/>
      <point x="330" y="348" type="line"/>
      <point x="189" y="348" type="line"/>
      <point x="189" y="56" type="line"/>
      <point x="295" y="56" type="line" smooth="yes"/>
      <point x="444" y="56"/>
      <point x="532" y="159"/>
    </contour>
  </outline>
</glyph>
<glyph name="multiply" format="1">
  <advance width="600"/>
  <unicode hex="00D7"/>
  <outline>
    <contour>
      <point x="530" y="168" type="line"/>
      <point x="487" y="125" type="line"/>
      <point x="300" y="316" type="line"/>
      <point x="113" y="125" type="line"/>
      <point x="70" y="168" type="line"/>
      <point x="261" y="355" type="line"/>
      <point x="70" y="542" type="line"/>
      <point x="113" y="585" type="line"/>
      <point x="300" y="394" type="line"/>
      <point x="487" y="585" type="line"/>
      <point x="530" y="542" type="line"/>
      <point x="339" y="355" type="line"/>
    </contour>
  </outline>
</glyph>
<glyph name="germandbls" format="1">
  <advance width="577"/>
  <unicode hex="00DF"/>
  <outline>
    <contour>
      <point x="535" y="183" type="curve" smooth="yes"/>
      <point x="535" y="66"/>
      <point x="458" y="-9"/>
      <point x="351" y="-9" type="curve" smooth="yes"/>
      <point x="287" y="-9"/>
      <point x="247" y="11"/>
      <point x="216" y="38" type="curve"/>
      <point x="239" y="80" type="line"/>
      <point x="268" y="54"/>
      <point x="295" y="39"/>
      <point x="346" y="39" type="curve" smooth="yes"/>
      <point x="415" y="39"/>
      <point x="469" y="90"/>
      <point x="469" y="181" type="curve" smooth="yes"/>
      <point x="469" y="304"/>
      <point x="383" y="378"/>
      <point x="240" y="390" type="curve"/>
      <point x="240" y="435" type="line"/>
      <point x="350" y="439"/>
      <point x="404" y="505"/>
      <point x="404" y="584" type="curve" smooth="yes"/>
      <point x="404" y="656"/>
      <point x="356" y="711"/>
      <point x="272" y="711" type="curve" smooth="yes"/>
      <point x="186" y="711"/>
      <point x="136" y="651"/>
      <point x="136" y="547" type="curve" smooth="yes"/>
      <point x="136" y="0" type="line"/>
      <point x="70" y="0" type="line"/>
      <point x="70" y="540" type="line" smooth="yes"/>
      <point x="70" y="676"/>
      <point x="147" y="759"/>
      <point x="274" y="759" type="curve" smooth="yes"/>
      <point x="397" y="759"/>
      <point x="469" y="686"/>
      <point x="469" y="589" type="curve" smooth="yes"/>
      <point x="469" y="502"/>
      <point x="414" y="444"/>
      <point x="343" y="420" type="curve"/>
      <point x="343" y="413" type="line"/>
      <point x="441" y="388"/>
      <point x="535" y="314"/>
    </contour>
  </outline>
</glyph>
<glyph name="ae" format="1">
  <advance width="753"/>
  <unicode hex="00E6"/>
  <outline>
    <contour>
      <point x="713" y="246" type="line"/>
      <point x="400" y="246" type="line"/>
      <point x="402" y="110"/>
      <point x="459" y="39"/>
      <point x="548" y="39" type="curve" smooth="yes"/>
      <point x="600" y="39"/>
      <point x="640" y="61"/>
      <point x="682" y="100" type="curve"/>
      <point x="709" y="61" type="line"/>
      <point x="663" y="18"/>
      <point x="612" y="-10"/>
      <point x="540" y="-10" type="curve" smooth="yes"/>
      <point x="465" y="-10"/>
      <point x="404" y="29"/>
      <point x="369" y="99" type="curve"/>
      <point x="313" y="31"/>
      <point x="247" y="-8"/>
      <point x="175" y="-8" type="curve" smooth="yes"/>
      <point x="94" y="-8"/>
      <point x="32" y="40"/>
      <point x="32" y="129" type="curve" smooth="yes"/>
      <point x="32" y="235"/>
      <point x="136" y="304"/>
      <point x="336" y="305" type="curve"/>
      <point x="336" y="374" type="line" smooth="yes"/>
      <point x="336" y="438"/>
      <point x="305" y="473"/>
      <point x="245" y="473" type="curve" smooth="yes"/>
      <point x="199" y="473"/>
      <point x="152" y="455"/>
      <point x="94" y="422" type="curve"/>
      <point x="73" y="467" type="line"/>
      <point x="131" y="498"/>
      <point x="185" y="522"/>
      <point x="254" y="522" type="curve" smooth="yes"/>
      <point x="332" y="522"/>
      <point x="368" y="479"/>
      <point x="378" y="414" type="curve"/>
      <point x="385" y="414" type="line"/>
      <point x="414" y="484"/>
      <point x="461" y="527"/>
      <point x="530" y="527" type="curve" smooth="yes"/>
      <point x="645" y="527"/>
      <point x="713" y="421"/>
      <point x="713" y="258" type="curve" smooth="yes"/>
    </contour>
    <contour>
      <point x="649" y="285" type="line"/>
      <point x="642" y="413"/>
      <point x="603" y="482"/>
      <point x="529" y="482" type="curve" smooth="yes"/>
      <point x="452" y="482"/>
      <point x="406" y="405"/>
      <point x="401" y="285" type="curve"/>
    </contour>
    <contour>
      <point x="354" y="133" type="curve"/>
      <point x="342" y="168"/>
      <point x="336" y="208"/>
      <point x="336" y="253" type="curve" smooth="yes"/>
      <point x="336" y="270" type="line"/>
      <point x="166" y="271"/>
      <point x="94" y="208"/>
      <point x="94" y="135" type="curve" smooth="yes"/>
      <point x="94" y="73"/>
      <point x="135" y="38"/>
      <point x="193" y="38" type="curve" smooth="yes"/>
      <point x="246" y="38"/>
      <point x="306" y="70"/>
    </contour>
  </outline>
</glyph>
<glyph name="ccedilla" format="1">
  <advance width="444"/>
  <unicode hex="00E7"/>
  <outline>
    <contour>
      <point x="414" y="122" type="line"/>
      <point x="385" y="44"/>
      <point x="332" y="-5"/>
      <point x="254" y="-10" type="curve"/>
      <point x="227" y="-54" type="line"/>
      <point x="242" y="-48"/>
      <point x="256" y="-45"/>
      <point x="274" y="-45" type="curve" smooth="yes"/>
      <point x="317" y="-45"/>
      <point x="345" y="-64"/>
      <point x="345" y="-103" type="curve" smooth="yes"/>
      <point x="345" y="-164"/>
      <point x="271" y="-193"/>
      <point x="134" y="-191" type="curve"/>
      <point x="134" y="-167" type="line"/>
      <point x="249" y="-165"/>
      <point x="290" y="-144"/>
      <point x="290" y="-111" type="curve" smooth="yes"/>
      <point x="290" y="-93"/>
      <point x="276" y="-82"/>
      <point x="252" y="-82" type="curve" smooth="yes"/>
      <point x="231" y="-82"/>
      <point x="214" y="-86"/>
      <point x="197" y="-94" type="curve"/>
      <point x="175" y="-80" type="line"/>
      <point x="218" y="-9" type="line"/>
      <point x="111" y="4"/>
      <point x="42" y="106"/>
      <point x="42" y="254" type="curve" smooth="yes"/>
      <point x="42" y="261" type="line" smooth="yes"/>
      <point x="42" y="417"/>
      <point x="121" y="527"/>
      <point x="244" y="527" type="curve" smooth="yes"/>
      <point x="330" y="527"/>
      <point x="381" y="480"/>
      <point x="411" y="400" type="curve"/>
      <point x="355" y="382" type="line"/>
      <point x="330" y="444"/>
      <point x="300" y="479"/>
      <point x="242" y="479" type="curve" smooth="yes"/>
      <point x="158" y="479"/>
      <point x="108" y="393"/>
      <point x="108" y="261" type="curve" smooth="yes"/>
      <point x="108" y="257" type="line" smooth="yes"/>
      <point x="108" y="125"/>
      <point x="158" y="38"/>
      <point x="243" y="38" type="curve" smooth="yes"/>
      <point x="299" y="38"/>
      <point x="332" y="72"/>
      <point x="360" y="139" type="curve"/>
    </contour>
  </outline>
</glyph>
<glyph name="divide" format="1">
  <advance width="600"/>
  <unicode hex="00F7"/>
  <outline>
    <contour>
      <point x="350" y="557" type="curve" smooth="yes"/>
      <point x="350" y="528"/>
      <point x="329" y="507"/>
      <point x="300" y="507" type="curve" smooth="yes"/>
      <point x="271" y="507"/>
      <point x="250" y="528"/>
      <point x="250" y="557" type="curve" smooth="yes"/>
      <point x="250" y="586"/>
      <point x="271" y="608"/>
      <point x="300" y="608" type="curve" smooth="yes"/>
      <point x="329" y="608"/>
      <point x="350" y="586"/>
    </contour>
    <contour>
      <point x="554" y="325" type="line"/>
      <point x="46" y="325" type="line"/>
      <point x="46" y="385" type="line"/>
      <point x="554" y="385" type="line"/>
    </contour>
    <contour>
      <point x="350" y="153" type="curve" smooth="yes"/>
      <point x="350" y="124"/>
      <point x="329" y="102"/>
      <point x="300" y="102" type="curve" smooth="yes"/>
      <point x="271" y="102"/>
      <point x="250" y="124"/>
      <point x="250" y="153" type="curve" smooth="yes"/>
      <point x="250" y="182"/>
      <point x="271" y="203"/>
      <point x="300" y="203" type="curve" smooth="yes"/>
      <point x="329" y="203"/>
      <point x="350" y="182"/>
    </contour>
  </outline>
</glyph>
<glyph name="oslash" format="1">
  <advance width="492"/>
  <unicode hex="00F8"/>
  <outline>
    <contour>
      <point x="449" y="256" type="line" smooth="yes"/>
      <point x="449" y="100"/>
      <point x="371" y="-10"/>
      <point x="246" y="-10" type="curve" smooth="yes"/>
      <point x="207" y="-10"/>
      <point x="174" y="1"/>
      <point x="145" y="20" type="curve"/>
      <point x="87" y="-95" type="line"/>
      <point x="42" y="-95" type="line"/>
      <point x="114" y="43" type="line"/>
      <point x="68" y="90"/>
      <point x="42" y="164"/>
      <point x="42" y="254" type="curve" smooth="yes"/>
      <point x="42" y="261" type="line" smooth="yes"/>
      <point x="42" y="417"/>
      <point x="121" y="527"/>
      <point x="246" y="527" type="curve" smooth="yes"/>
      <point x="284" y="527"/>
      <point x="318" y="516"/>
      <point x="347" y="497" type="curve"/>
      <point x="405" y="612" type="line"/>
      <point x="449" y="612" type="line"/>
      <point x="377" y="473" type="line"/>
      <point x="424" y="427"/>
      <point x="449" y="352"/>
      <point x="449" y="263" type="curve" smooth="yes"/>
    </contour>
    <contour>
      <point x="387" y="254" type="curve" smooth="yes"/>
      <point x="387" y="261" type="line" smooth="yes"/>
      <point x="387" y="326"/>
      <point x="374" y="385"/>
      <point x="348" y="423" type="curve"/>
      <point x="166" y="64" type="line"/>
      <point x="188" y="45"/>
      <point x="215" y="34"/>
      <point x="246" y="34" type="curve" smooth="yes"/>
      <point x="334" y="34"/>
      <point x="387" y="120"/>
    </contour>
    <contour>
      <point x="324" y="452" type="line"/>
      <point x="303" y="472"/>
      <point x="277" y="483"/>
      <point x="246" y="483" type="curve" smooth="yes"/>
      <point x="157" y="483"/>
      <point x="105" y="396"/>
      <point x="105" y="263" type="curve" smooth="yes"/>
      <point x="105" y="256" type="line" smooth="yes"/>
      <point x="105" y="191"/>
      <point x="117" y="131"/>
      <point x="143" y="93" type="curve"/>
    </contour>
  </outline>
</glyph>
<glyph name="Lslash" format="1">
  <advance width="546"/>
  <unicode hex="0141"/>
  <outline>
    <contour>
      <point x="528" y="0" type="line"/>
      <point x="120" y="0" type="line"/>
      <point x="120" y="327" type="line"/>
      <point x="28" y="284" type="line"/>
      <point x="28" y="346" type="line"/>
      <point x="120" y="388" type="line"/>
      <point x="120" y="720" type="line"/>
      <point x="190" y="720" type="line"/>
      <point x="190" y="418" type="line"/>
      <point x="338" y="487" type="line"/>
      <point x="338" y="425" type="line"/>
      <point x="190" y="356" type="line"/>
      <point x="190" y="59" type="line"/>
      <point x="528" y="59" type="line"/>
    </contour>
  </outline>
</glyph>
<glyph name="OE" format="1">
  <advance width="888"/>
  <unicode hex="0152"/>
  <outline>
    <contour>
      <point x="849" y="0" type="line"/>
      <point x="365" y="0" type="line" smooth="yes"/>
      <point x="162" y="0"/>
      <point x="53" y="131"/>
      <point x="53" y="354" type="curve" smooth="yes"/>
      <point x="53" y="364" type="line" smooth="yes"/>
      <point x="53" y="589"/>
      <point x="167" y="720"/>
      <point x="370" y="720" type="curve" smooth="yes"/>
      <point x="837" y="720" type="line"/>
      <point x="837" y="664" type="line"/>
      <point x="512" y="664" type="line"/>
      <point x="512" y="404" type="line"/>
      <point x="778" y="404" type="line"/>
      <point x="778" y="349" type="line"/>
      <point x="512" y="349" type="line"/>
      <point x="512" y="56" type="line"/>
      <point x="849" y="56" type="line"/>
    </contour>
    <contour>
      <point x="442" y="56" type="line"/>
      <point x="442" y="664" type="line"/>
      <point x="367" y="664" type="line" smooth="yes"/>
      <point x="216" y="664"/>
      <point x="125" y="561"/>
      <point x="125" y="370" type="curve" smooth="yes"/>
      <point x="125" y="352" type="line" smooth="yes"/>
      <point x="125" y="159"/>
      <point x="212" y="56"/>
      <point x="371" y="56" type="curve" smooth="yes"/>
    </contour>
  </outline>
</glyph>
<glyph name="circumflex" format="1">
  <advance width="500"/>
  <unicode hex="02C6"/>
  <outline>
    <contour>
      <point x="404" y="588" type="line"/>
      <point x="365" y="588" type="line"/>
      <point x="249" y="695" type="line"/>
      <point x="133" y="588" type="line"/>
      <point x="96" y="588" type="line"/>
      <point x="220" y="746" type="line"/>
      <point x="280" y="746" type="line"/>
    </contour>
  </outline>
</glyph>
<glyph name="caron" format="1">
  <advance width="500"/>
  <unicode hex="02C7"/>
  <outline>
    <contour>
      <point x="404" y="750" type="line"/>
      <point x="280" y="592" type="line"/>
      <point x="220" y="592" type="line"/>
      <point x="96" y="750" type="line"/>
      <point x="135" y="750" type="line"/>
      <point x="251" y="644" type="line"/>
      <point x="367" y="750" type="line"/>
    </contour>
  </outline>
</glyph>
<glyph name="breve" format="1">
  <advance width="500"/>
  <unicode hex="02D8"/>
  <outline>
    <contour>
      <point x="398" y="750" type="line"/>
      <point x="393" y="649"/>
      <point x="341" y="589"/>
      <point x="250" y="589" type="curve" smooth="yes"/>
      <point x="159" y="589"/>
      <point x="107" y="649"/>
      <point x="102" y="750" type="curve"/>
      <point x="141" y="750" type="line"/>
      <point x="150" y="675"/>
      <point x="188" y="641"/>
      <point x="250" y="641" type="curve" smooth="yes"/>
      <point x="312" y="641"/>
      <point x="350" y="675"/>
      <point x="359" y="750" type="curve"/>
    </contour>
  </outline>
</glyph>
<glyph name="dotaccent" format="1">
  <advance width="500"/>
  <unicode hex="02D9"/>
  <outline>
    <contour>
      <point x="288" y="592" type="line"/>
      <point x="212" y="592" type="line"/>
      <point x="212" y="679" type="line"/>
      <point x="288" y="679" type="line"/>
    </contour>
  </outline>
</glyph>
<glyph name="ring" format="1">
  <advance width="500"/>
  <unicode hex="02DA"/>
  <outline>
    <contour>
      <point x="346" y="675" type="curve" smooth="yes"/>
      <point x="346" y="623"/>
      <point x="307" y="585"/>
      <point x="250" y="585" type="curve" smooth="yes"/>
      <point x="193" y="585"/>
      <point x="154" y="623"/>
      <point x="154" y="675" type="curve" smooth="yes"/>
      <point x="154" y="727"/>
      <point x="193" y="765"/>
      <point x="250" y="765" type="curve" smooth="yes"/>
      <point x="307" y="765"/>
      <point x="346" y="727"/>
    </contour>
    <contour>
      <point x="306" y="675" type="curve" smooth="yes"/>
      <point x="306" y="709"/>
      <point x="282" y="733"/>
      <point x="250" y="733" type="curve" smooth="yes"/>
      <point x="218" y="733"/>
      <point x="194" y="709"/>
      <point x="194" y="675" type="curve" smooth="yes"/>
      <point x="194" y="641"/>
      <point x="218" y="617"/>
      <point x="250" y="617" type="curve" smooth="yes"/>
      <point x="282" y="617"/>
      <point x="306" y="641"/>
    </contour>
  </outline>
</glyph>
<glyph name="ogonek" format="1">
  <advance width="500"/>
  <unicode hex="02DB"/>
  <outline>
    <contour>
      <point x="371" y="-155" type="line"/>
      <point x="331" y="-177"/>
      <point x="290" y="-190"/>
      <point x="249" y="-190" type="curve" smooth="yes"/>
      <point x="191" y="-190"/>
      <point x="152" y="-163"/>
      <point x="152" y="-115" type="curve" smooth="yes"/>
      <point x="152" y="-71"/>
      <point x="191" y="-30"/>
      <point x="242" y="0" type="curve"/>
      <point x="281" y="0" type="line"/>
      <point x="234" y="-34"/>
      <point x="209" y="-71"/>
      <point x="209" y="-106" type="curve" smooth="yes"/>
      <point x="209" y="-134"/>
      <point x="231" y="-153"/>
      <point x="263" y="-153" type="curve" smooth="yes"/>
      <point x="296" y="-153"/>
      <point x="325" y="-145"/>
      <point x="360" y="-131" type="curve"/>
    </contour>
  </outline>
</glyph>
<glyph name="tilde" format="1">
  <advance width="500"/>
  <unicode hex="02DC"/>
  <outline>
    <contour>
      <point x="404" y="700" type="line"/>
      <point x="404" y="626"/>
      <point x="378" y="593"/>
      <point x="324" y="593" type="curve" smooth="yes"/>
      <point x="269" y="593"/>
      <point x="216" y="649"/>
      <point x="177" y="649" type="curve" smooth="yes"/>
      <point x="149" y="649"/>
      <point x="136" y="633"/>
      <point x="136" y="595" type="curve"/>
      <point x="96" y="595" type="line"/>
      <point x="96" y="668"/>
      <point x="122" y="702"/>
      <point x="176" y="702" type="curve" smooth="yes"/>
      <point x="231" y="702"/>
      <point x="284" y="646"/>
      <point x="323" y="646" type="curve" smooth="yes"/>
      <point x="351" y="646"/>
      <point x="364" y="662"/>
      <point x="364" y="700" type="curve"/>
    </contour>
  </outline>
</glyph>
<glyph name="endash" format="1">
  <advance width="500"/>
  <unicode hex="2013"/>
  <outline>
    <contour>
      <point x="462" y="251" type="line"/>
      <point x="38" y="251" type="line"/>
      <point x="38" y="310" type="line"/>
      <point x="462" y="310" type="line"/>
    </contour>
  </outline>
</glyph>
<glyph name="quoteleft" format="1">
  <advance width="186"/>
  <unicode hex="2018"/>
  <unicode hex="02BB"/>
  <outline>
    <contour>
      <point x="143" y="505" type="line"/>
      <point x="102" y="505" type="line"/>
      <point x="32" y="720" type="line"/>
      <point x="110" y="720" type="line"/>
    </contour>
  </outline>
</glyph>
<glyph name="quotedblbase" format="1">
  <advance width="334"/>
  <unicode hex="201E"/>
  <outline>
    <contour>
      <point x="290" y="96" type="line"/>
      <point x="221" y="-119" type="line"/>
      <point x="180" y="-119" type="line"/>
      <point x="213" y="96" type="line"/>
    </contour>
    <contour>
      <point x="142" y="96" type="line"/>
      <point x="72" y="-119" type="line"/>
      <point x="31" y="-119" type="line"/>
      <point x="65" y="96" type="line"/>
    </contour>
  </outline>
</glyph>
<glyph name="dagger" format="1">
  <advance width="433"/>
  <unicode hex="2020"/>
  <outline>
    <contour>
      <point x="401" y="465" type="line"/>
      <point x="237" y="482" type="line"/>
      <point x="254" y="345" type="line"/>
      <point x="230" y="0" type="line"/>
      <point x="202" y="0" type="line"/>
      <point x="179" y="345" type="line"/>
      <point x="196" y="482" type="line"/>
      <point x="32" y="465" type="line"/>
      <point x="32" y="524" type="line"/>
      <point x="196" y="506" type="line"/>
      <point x="179" y="720" type="line"/>
      <point x="254" y="720" type="line"/>
      <point x="237" y="506" type="line"/>
      <point x="401" y="524" type="line"/>
    </contour>
  </outline>
</glyph>
<glyph name="guilsinglleft" format="1">
  <advance width="265"/>
  <unicode hex="2039"/>
  <outline>
    <contour>
      <point x="230" y="78" type="line"/>
      <point x="185" y="78" type="line"/>
      <point x="28" y="258" type="line"/>
      <point x="185" y="439" type="line"/>
      <point x="230" y="439" type="line"/>
      <point x="104" y="258" type="line"/>
    </contour>
  </outline>
</glyph>
<glyph name="guilsinglright" format="1">
  <advance width="265"/>
  <unicode hex="203A"/>
  <outline>
    <contour>
      <point x="236" y="258" type="line"/>
      <point x="79" y="78" type="line"/>
      <point x="34" y="78" type="line"/>
      <point x="160" y="258" type="line"/>
      <point x="34" y="439" type="line"/>
      <point x="79" y="439" type="line"/>
    </contour>
  </outline>
</glyph>
<glyph name="fraction" format="1">
  <advance width="370"/>
  <unicode hex="2044"/>
  <outline>
    <contour>
      <point x="407" y="735" type="line"/>
      <point x="27" y="-15" type="line"/>
      <point x="-38" y="-15" type="line"/>
      <point x="342" y="735" type="line"/>
    </contour>
  </outline>
</glyph>
<glyph name="minus" format="1">
  <advance width="600"/>
  <unicode hex="2212"/>
  <outline>
    <contour>
      <point x="554" y="323" type="line"/>
      <point x="46" y="323" type="line"/>
      <point x="46" y="387" type="line"/>
      <point x="554" y="387" type="line"/>
    </contour>
  </outline>
</glyph>
<glyph name="radical" format="1">
  <advance width="562"/>
  <unicode hex="221A"/>
  <outline>
    <contour>
      <point x="532" y="720" type="line"/>
      <point x="269" y="-3" type="line"/>
      <point x="195" y="-3" type="line"/>
      <point x="40" y="340" type="line"/>
      <point x="111" y="340" type="line"/>
      <point x="232" y="58" type="line"/>
      <point x="459" y="720" type="line"/>
    </contour>
  </outline>
</glyph>
<glyph name="fi" format="1">
  <advance width="549"/>
  <unicode hex="FB01"/>
  <outline>
    <contour>
      <point x="477" y="637" type="line"/>
      <point x="396" y="637" type="line"/>
      <point x="396" y="722" type="line"/>
      <point x="477" y="722" type="line"/>
    </contour>
    <contour>
      <point x="470" y="0" type="line"/>
      <point x="403" y="0" type="line"/>
      <point x="403" y="517" type="line"/>
      <point x="470" y="517" type="line"/>
    </contour>
    <contour>
      <point x="339" y="692" type="line"/>
      <point x="318" y="703"/>
      <point x="293" y="711"/>
      <point x="257" y="711" type="curve" smooth="yes"/>
      <point x="212" y="711"/>
      <point x="187" y="684"/>
      <point x="187" y="625" type="curve" smooth="yes"/>
      <point x="187" y="512" type="line"/>
      <point x="316" y="512" type="line"/>
      <point x="316" y="464" type="line"/>
      <point x="187" y="464" type="line"/>
      <point x="187" y="0" type="line"/>
      <point x="121" y="0" type="line"/>
      <point x="121" y="464" type="line"/>
      <point x="17" y="464" type="line"/>
      <point x="17" y="512" type="line"/>
      <point x="121" y="512" type="line"/>
      <point x="121" y="622" type="line" smooth="yes"/>
      <point x="121" y="714"/>
      <point x="172" y="759"/>
      <point x="251" y="759" type="curve" smooth="yes"/>
      <point x="292" y="759"/>
      <point x="316" y="754"/>
      <point x="339" y="746" type="curve"/>
    </contour>
  </outline>
</glyph>
<glyph name="I.salt" format="1">
  <advance width="257"/>
  <outline>
    <contour>
      <point x="164" y="0" type="line"/>
      <point x="93" y="0" type="line"/>
      <point x="93" y="720" type="line"/>
      <point x="164" y="720" type="line"/>
    </contour>
  </outline>
</glyph>
<glyph name="macron" format="1">
  <advance width="500"/>
  <outline>
    <contour>
      <point x="389" y="631" type="line"/>
      <point x="111" y="631" type="line"/>
      <point x="111" y="684" type="line"/>
      <point x="389" y="684" type="line"/>
    </contour>
  </outline>
</glyph>
<glyph name="registered.big" format="1">
  <advance width="835"/>
  <outline>
    <contour>
      <point x="790" y="360" type="curve" smooth="yes"/>
      <point x="790" y="150"/>
      <point x="628" y="-12"/>
      <point x="417" y="-12" type="curve" smooth="yes"/>
      <point x="207" y="-12"/>
      <point x="46" y="149"/>
      <point x="46" y="360" type="curve" smooth="yes"/>
      <point x="46" y="570"/>
      <point x="207" y="732"/>
      <point x="418" y="732" type="curve" smooth="yes"/>
      <point x="628" y="732"/>
      <point x="790" y="571"/>
    </contour>
    <contour>
      <point x="753" y="360" type="curve" smooth="yes"/>
      <point x="753" y="553"/>
      <point x="610" y="700"/>
      <point x="417" y="700" type="curve" smooth="yes"/>
      <point x="225" y="700"/>
      <point x="82" y="553"/>
      <point x="82" y="360" type="curve" smooth="yes"/>
      <point x="82" y="167"/>
      <point x="225" y="20"/>
      <point x="418" y="20" type="curve" smooth="yes"/>
      <point x="611" y="20"/>
      <point x="753" y="167"/>
    </contour>
    <contour>
      <point x="581" y="162" type="line"/>
      <point x="519" y="162" type="line"/>
      <point x="405" y="337" type="line"/>
      <point x="350" y="337" type="line"/>
      <point x="350" y="162" type="line"/>
      <point x="295" y="162" type="line"/>
      <point x="295" y="568" type="line"/>
      <point x="426" y="568" type="line" smooth="yes"/>
      <point x="511" y="568"/>
      <point x="564" y="529"/>
      <point x="564" y="454" type="curve" smooth="yes"/>
      <point x="564" y="390"/>
      <point x="525" y="353"/>
      <point x="463" y="342" type="curve"/>
    </contour>
    <contour>
      <point x="509" y="453" type="curve" smooth="yes"/>
      <point x="509" y="499"/>
      <point x="479" y="524"/>
      <point x="422" y="524" type="curve" smooth="yes"/>
      <point x="349" y="524" type="line"/>
      <point x="349" y="381" type="line"/>
      <point x="424" y="381" type="line" smooth="yes"/>
      <point x="479" y="381"/>
      <point x="509" y="403"/>
    </contour>
  </outline>
</glyph>
<glyph name="registered" format="1">
  <advance width="527"/>
  <outline>
    <contour>
      <point x="487" y="504" type="curve" smooth="yes"/>
      <point x="487" y="378"/>
      <point x="390" y="281"/>
      <point x="263" y="281" type="curve" smooth="yes"/>
      <point x="137" y="281"/>
      <point x="41" y="377"/>
      <point x="41" y="504" type="curve" smooth="yes"/>
      <point x="41" y="630"/>
      <point x="137" y="727"/>
      <point x="264" y="727" type="curve" smooth="yes"/>
      <point x="390" y="727"/>
      <point x="487" y="630"/>
    </contour>
    <contour>
      <point x="461" y="504" type="curve" smooth="yes"/>
      <point x="461" y="617"/>
      <point x="377" y="704"/>
      <point x="263" y="704" type="curve" smooth="yes"/>
      <point x="150" y="704"/>
      <point x="66" y="617"/>
      <point x="66" y="504" type="curve" smooth="yes"/>
      <point x="66" y="391"/>
      <point x="150" y="304"/>
      <point x="264" y="304" type="curve" smooth="yes"/>
      <point x="377" y="304"/>
      <point x="461" y="391"/>
    </contour>
    <contour>
      <point x="368" y="382" type="line"/>
      <point x="323" y="382" type="line"/>
      <point x="254" y="487" type="line"/>
      <point x="226" y="487" type="line"/>
      <point x="226" y="382" type="line"/>
      <point x="186" y="382" type="line"/>
      <point x="186" y="632" type="line"/>
      <point x="269" y="632" type="line" smooth="yes"/>
      <point x="322" y="632"/>
      <point x="355" y="607"/>
      <point x="355" y="560" type="curve" smooth="yes"/>
      <point x="355" y="522"/>
      <point x="332" y="498"/>
      <point x="296" y="491" type="curve"/>
    </contour>
    <contour>
      <point x="316" y="560" type="curve" smooth="yes"/>
      <point x="316" y="586"/>
      <point x="299" y="600"/>
      <point x="267" y="600" type="curve" smooth="yes"/>
      <point x="225" y="600" type="line"/>
      <point x="225" y="519" type="line"/>
      <point x="267" y="519" type="line" smooth="yes"/>
      <point x="298" y="519"/>
      <point x="316" y="532"/>
    </contour>
  </outline>
</glyph>
